<svg width="179" height="181" fill="none" xmlns="http://www.w3.org/2000/svg">
    <ellipse cx="89.5" cy="90.5" rx="89.5" ry="89.682" fill="#C0433C"/>
    <mask id="a" style="mask-type:alpha" maskUnits="userSpaceOnUse" x="0" y="0" width="179" height="181">
        <ellipse cx="89.5" cy="90.5" rx="89.5" ry="89.682" fill="#fff"/>
    </mask>
    <g mask="url(#a)" fill-rule="evenodd" clip-rule="evenodd">
        <path d="m120.31 132.314-61.617-.002c-.382.002-.693-.363-.693-.81 0-.456.31-.814.693-.816h61.617c.382.002.69.36.69.816 0 .447-.308.812-.69.812zm-48.127-21.681a.721.721 0 0 1 .038-1 .687.687 0 0 1 .985.039 20.89 20.89 0 0 0 15.493 6.911c11.529 0 20.909-9.446 20.912-21.05A21.067 21.067 0 0 0 107.817 87a.718.718 0 0 1 .351-.939.69.69 0 0 1 .921.36 22.469 22.469 0 0 1 1.911 9.11C111 107.92 100.996 118 88.699 118c-6.276 0-12.294-2.692-16.516-7.367zM101 86c-4.416.003-8-3.59-8-8-.003-4.415 3.584-8.005 8.003-8 4.408 0 7.997 3.588 7.997 7.997 0 4.415-3.587 8.003-8 8.003zm19.515 43.163h-10.73l-5.473-15.727a23.675 23.675 0 0 0 7.991-17.76c0-4.237-1.146-8.344-3.219-11.923a10.375 10.375 0 0 0 2.196-6.392c0-5.72-4.604-10.361-10.277-10.361-5.68 0-10.284 4.642-10.284 10.361 0 5.725 4.604 10.362 10.284 10.364.744-.002 1.47-.085 2.173-.243a16.758 16.758 0 0 1 2.156 8.193c0 9.17-7.4 16.629-16.503 16.635a16.619 16.619 0 0 1-6.167-1.197c.946-1.308 1.602-3.187.818-3.65L65.328 96.857c-1.334-.778-4.132 4.083-2.796 4.864l7.448 4.352c-.862.781-1.375 1.631-1.01 2.218 3.47 5.533 8.916 9.275 15.115 10.552l-3.95 10.318h-21.65c-1.923.002-3.485 1.574-3.485 3.512a3.502 3.502 0 0 0 3.488 3.515h1.987c.323 1.597 1.729 2.812 3.414 2.809l51.225.003c1.687-.003 3.09-1.212 3.416-2.812l1.985-.003c1.923.003 3.485-1.568 3.485-3.512 0-1.936-1.562-3.51-3.485-3.51zM100.503 71C96.916 71 94 73.916 94 77.497A6.51 6.51 0 0 0 100.505 84c3.578-.003 6.495-2.92 6.495-6.5 0-3.584-2.917-6.5-6.497-6.5zM77.356 87.9a.69.69 0 0 1-.259-.958L97.99 52.187c1.032-1.72 2.947-2.78 4.99-2.767l.827.005 4.858-8.08a.728.728 0 0 1 .98-.25.7.7 0 0 1 .259.962l-5.276 8.773s-1.653-.012-1.653-.01c-1.537-.008-2.976.79-3.747 2.074l-20.886 34.76a.725.725 0 0 1-.985.246zm15.048-2.38a11.524 11.524 0 0 1-2.987-7.758c0-6.317 5.046-11.466 11.256-11.466.907 0 1.781.125 2.625.33l4.868-8.444c1.295-2.248 1.221-4.922.049-7.049l4.68-8.124c.966-1.68-5.004-5.25-5.97-3.57l-4.685 8.124a6.878 6.878 0 0 0-6.018 3.474L75 87.852 86.947 95l5.457-9.48zm-19.543 5.785 12.505 7.451c.83.494 1.903.215 2.392-.631a1.78 1.78 0 0 0-.62-2.423l-12.513-7.454a1.719 1.719 0 0 0-2.384.627 1.794 1.794 0 0 0 .62 2.43z" fill="#F37271"/>
        <path d="m112.682 42.128-.003.005c.606.627.93 1.27.645 1.754l-4.717 8.01c1.182 2.097 1.256 4.734-.046 6.95l-4.91 8.326s-.357.466-.678.906c4.745.914 8.332 5.08 8.332 10.074 0 2.394-.828 4.585-2.202 6.331a23.392 23.392 0 0 1 3.224 11.81c0 7.002-3.098 13.297-8.005 17.593l5.485 15.578h10.747c1.926 0 3.494 1.561 3.494 3.476a3.483 3.483 0 0 1-3.494 3.479l-1.989.003a3.498 3.498 0 0 1-3.422 2.785l-51.317-.002a3.492 3.492 0 0 1-3.42-2.783h-1.988a3.486 3.486 0 0 1-2.636-1.219l-.01.026 31.706 31.596s23.601 13.356 25.204 13.356c13.436 0 27.318-5.01 27.318-5.01 18.786 0 30-17.45 30-36.172 0 0 7.506 1.056 9 0 4.59-3.243 6-19.108 6-19.108l-72.318-77.764z" fill="#A6302F" fill-opacity=".45"/>
    </g>
</svg>
