<svg xmlns="http://www.w3.org/2000/svg" width="66" height="66">
    <defs>
        <style>
            .cls-2{fill:#0a3cab}
        </style>
    </defs>
    <g id="Group_3615" data-name="Group 3615" transform="translate(-641 -1988)">
        <circle id="Ellipse_761" data-name="Ellipse 761" cx="33" cy="33" r="33" transform="translate(641 1988)" style="fill:#fff"/>
        <g id="charity" transform="translate(655 2001.099)">
            <path id="Path_1132" data-name="Path 1132" class="cls-2" d="m27.1 348.856-5.2 2.672a2.521 2.521 0 0 0-1.775-.73h-3.6a1.322 1.322 0 0 1-.222-.012c-.034-.025-.109-.1-.17-.153l-.033-.033c-2.939-2.77-5.424-2.595-8.252-1.48a1.837 1.837 0 0 1-.887.193h-.754a1.841 1.841 0 0 0-1.726-1.205H1.836A1.838 1.838 0 0 0 0 349.945v.139a.742.742 0 0 0 1.484 0v-.139a.357.357 0 0 1 .352-.352h2.645a.358.358 0 0 1 .354.352v6.944a.358.358 0 0 1-.354.352H1.836a.357.357 0 0 1-.352-.352v-.139a.742.742 0 0 0-1.484 0v.139a1.838 1.838 0 0 0 1.836 1.836h2.645a1.841 1.841 0 0 0 1.726-1.2h1.432a.652.652 0 0 1 .26.039l.213.058 6.846 1.832c.3.081.575.161.842.239a8.71 8.71 0 0 0 2.411.474 5.3 5.3 0 0 0 3.012-1.085l.019-.013 8.44-6.012a2.465 2.465 0 0 0-2.581-4.2zm1.72 2.989-8.431 6.005c-1.7 1.133-2.428.922-4.177.414-.273-.079-.555-.161-.87-.246l-6.849-1.833-.2-.054a1.905 1.905 0 0 0-.658-.093H6.319V350.8H7.026a3.2 3.2 0 0 0 1.366-.3c2.428-.957 4.3-1.071 6.691 1.181l.035.033a1.681 1.681 0 0 0 1.408.567h3.6a1.044 1.044 0 0 1 .9.519v.008a.743.743 0 0 0 .022.038 1.033 1.033 0 0 1 .117.477 1.044 1.044 0 0 1-1.044 1.042H14.3a.742.742 0 1 0 0 1.484h5.83a2.526 2.526 0 0 0 2.48-3.017l5.174-2.659a.985.985 0 1 1 1.041 1.669z" transform="translate(0 -320.917)"/>
            <path id="Path_1133" data-name="Path 1133" class="cls-2" d="M125.921 2.9h-2.647a1.839 1.839 0 0 0-1.725 1.206h-1.431a.621.621 0 0 1-.251-.038l-.222-.061-6.845-1.83c-.3-.081-.577-.162-.844-.239-1.89-.548-3.139-.911-5.423.611l-.019.013-8.438 6.012a2.5 2.5 0 0 0-.763 3.369 2.425 2.425 0 0 0 2.087 1.139 2.75 2.75 0 0 0 1.257-.309l5.2-2.672a2.518 2.518 0 0 0 1.776.732h3.6a1.314 1.314 0 0 1 .223.012c.034.025.11.1.172.156l.032.031a6.959 6.959 0 0 0 4.875 2.237 9.242 9.242 0 0 0 3.375-.759 1.861 1.861 0 0 1 .891-.192h.754a1.839 1.839 0 0 0 1.724 1.205h2.647a1.839 1.839 0 0 0 1.836-1.838V4.739a1.838 1.838 0 0 0-1.841-1.839zm-5.149 7.93h-.041a3.228 3.228 0 0 0-1.368.293c-2.427.958-4.3 1.072-6.689-1.177l-.031-.029a1.683 1.683 0 0 0-1.415-.573h-3.6a1.042 1.042 0 0 1-.9-.525l-.017-.029a1.043 1.043 0 0 1 .922-1.528h5.832a.742.742 0 1 0 0-1.484h-5.835a2.528 2.528 0 0 0-2.479 3.016l-5.173 2.659a1.047 1.047 0 0 1-1.4-.289 1.036 1.036 0 0 1 .361-1.379l8.429-6.005c1.7-1.133 2.429-.922 4.177-.415.273.079.556.161.872.247l6.848 1.833.2.056a1.89 1.89 0 0 0 .653.093h1.32v5.239h-.666zm5.5.851a.358.358 0 0 1-.352.354h-2.647a.358.358 0 0 1-.352-.354V4.739a.357.357 0 0 1 .352-.352h2.647a.357.357 0 0 1 .352.352z" transform="translate(-89.757)"/>
            <path id="Path_1134" data-name="Path 1134" class="cls-2" d="m205.6 218.553 2.769-2.672.019-.019a2.831 2.831 0 0 0 0-3.9 2.458 2.458 0 0 0-3.3-.141 2.493 2.493 0 0 0-3.3.141 2.831 2.831 0 0 0 0 3.9l.019.019 2.769 2.672a.742.742 0 0 0 1.031 0zm-2.758-3.73a1.351 1.351 0 0 1 .008-1.829 1.033 1.033 0 0 1 1.421.081l.026.025a.98.98 0 0 0 1.577 0l.026-.025a1.032 1.032 0 0 1 1.419-.082 1.351 1.351 0 0 1 .008 1.829l-2.243 2.165z" transform="translate(-186.085 -194.22)"/>
            <path id="Path_1135" data-name="Path 1135" class="cls-2" d="M170.88 163.472a7.418 7.418 0 1 0-7.418 7.419 7.427 7.427 0 0 0 7.418-7.419zm-13.351 0a5.933 5.933 0 1 1 5.933 5.935 5.941 5.941 0 0 1-5.933-5.935z" transform="translate(-144.463 -143.115)"/>
            <path id="Path_1136" data-name="Path 1136" class="cls-2" d="M394.2 246.014h-2.735a.742.742 0 0 0 0 1.484h2.735a.742.742 0 1 0 0-1.484z" transform="translate(-361.72 -226.4)"/>
            <path id="Path_1137" data-name="Path 1137" class="cls-2" d="M376.183 183.027a.739.739 0 0 0 .387-.11l2.27-1.393a.742.742 0 1 0-.776-1.265l-2.27 1.393a.742.742 0 0 0 .389 1.375z" transform="translate(-347.575 -165.423)"/>
            <path id="Path_1138" data-name="Path 1138" class="cls-2" d="m378.84 294.578-2.27-1.393a.742.742 0 1 0-.776 1.265l2.27 1.393a.742.742 0 1 0 .776-1.265z" transform="translate(-347.575 -269.968)"/>
            <path id="Path_1139" data-name="Path 1139" class="cls-2" d="M65.144 247.5h2.737a.742.742 0 0 0 0-1.484h-2.737a.742.742 0 1 0 0 1.484z" transform="translate(-59.622 -226.4)"/>
            <path id="Path_1140" data-name="Path 1140" class="cls-2" d="m86.3 181.525 2.272 1.393a.742.742 0 1 0 .776-1.265l-2.272-1.393a.742.742 0 1 0-.776 1.265z" transform="translate(-79.564 -165.424)"/>
            <path id="Path_1141" data-name="Path 1141" class="cls-2" d="m88.569 293.185-2.269 1.393a.742.742 0 1 0 .776 1.265l2.272-1.393a.742.742 0 1 0-.776-1.265z" transform="translate(-79.564 -269.968)"/>
            <path id="Path_1142" data-name="Path 1142" class="cls-2" d="M.742 411.09a.742.742 0 0 0 .742-.742.742.742 0 1 0-.742.746z" transform="translate(0 -377.847)"/>
        </g>
    </g>
</svg>
