<svg width="207" height="207" fill="none" xmlns="http://www.w3.org/2000/svg">
    <circle cx="103.5" cy="103.5" r="103.5" fill="#9FD2AC"/>
    <mask id="a" style="mask-type:alpha" maskUnits="userSpaceOnUse" x="0" y="0" width="207" height="207">
        <circle cx="103.5" cy="103.5" r="103.5" fill="#fff"/>
    </mask>
    <g mask="url(#a)" fill="#61A380">
        <path fill-rule="evenodd" clip-rule="evenodd" d="M116.613 189.979 72.67 145.642s1.181-2.823-.033-6.826c-1.214-4.004-2.823-4.89-2.823-4.89s-6.104-4.989-7.712-10.043c-1.608-5.054-2.067-11.026-2.067-11.026L58 98.056s.099-2.33 2.035-2.626c1.936-.295 4.338 1.011 4.338 1.011l5.678 5.678-.302-26.577s.82-3.774 3.61-3.774 4.299 1.97 4.299 1.97-.919-8.27 3.315-8.566c4.233-.296 4.742.345 4.742.345l4.397 4.398 4.525.936 9.773 9.773s2.883-1.242 4.294-.29c1.411.952 1.838.525 1.838.525s-.985-9.09 1.673-10.206c2.659-1.116 5.908.36 5.908.36h.919s-.722-5.02 2.888-5.808c3.61-.788 5.152.951 5.152.951l5.694 5.694 2.084.772 70.359 71.337s-7.942 27.896-33.146 47.849c-25.205 19.953-43.32 11.289-43.32 11.289" fill-opacity=".164"/>
        <path fill-rule="evenodd" clip-rule="evenodd" d="M79.282 102.138c.846-3.382 3.16-7.78 9.38-9.525a10.36 10.36 0 0 1 2.812-.38c4.32 0 8.517 2.54 11.293 5.28l.085.086a.811.811 0 0 0 1.114 0l.084-.084c3.378-3.335 8.856-6.374 14.105-4.902 6.221 1.745 8.535 6.143 9.38 9.525 1.235 4.94.447 8.666-7.332 16.447l-16.794 14.81-16.942-14.96c-7.533-7.533-8.338-11.68-7.184-16.297zm.201-32.053c0-2.27 1.89-3.503 3.667-3.51h.015c1.43 0 2.958.794 2.974 3.024.034 4.6.057 12.177.07 22.215l-.017.007c-3.323 1.404-5.405 3.583-6.693 5.716l-.016.025V70.085zm8.366 4.196c.153-1.857 2.062-2.75 3.847-2.678 1.404.058 3.044.783 3.042 2.635l-.005 16.834-.016-.004c-2.097-.512-4.298-.584-6.48.029-.152.042-.29.095-.438.14l-.016.006a5715.36 5715.36 0 0 0-.04-16.63.786.786 0 0 0 .106-.332zm8.46 9.428c.047-1.348 1.489-2.044 2.786-2.05 1.443.015 3.108.895 3.532 3.245a1.026 1.026 0 0 0-.008.055c.055.325.089.677.094 1.059.032 2.707.084 5.455.136 8.205l.023 1.247c-1.829-1.594-4.085-3.036-6.548-3.917l-.016-.006.001-7.837zm11.438-2.05c1.3-.01 2.74.703 2.786 2.051l.001 7.829-.016.005c-2.249.801-4.325 2.07-6.062 3.496l-.016-.847c-.052-2.746-.103-5.49-.136-8.194a8.7 8.7 0 0 0-.089-1.095c.424-2.35 2.089-3.23 3.532-3.244zm7.399-10.056c1.797-.075 3.693.821 3.847 2.678.01.121.049.232.107.33a5374.08 5374.08 0 0 0-.041 16.64l-.016-.006c-.156-.048-.301-.104-.462-.148-2.174-.61-4.367-.542-6.456-.036l-.016.005c-.001-6.252-.002-12.79-.005-16.829-.001-1.85 1.638-2.576 3.042-2.634zm5.557-2.004c.016-2.23 1.544-3.024 2.974-3.024h.015c1.777.007 3.667 1.24 3.667 3.51v27.52l-.016-.029c-1.283-2.14-3.363-4.332-6.693-5.745l-.017-.007c.013-10.043.036-17.624.07-22.225zM60.784 119.37c.742 7.623 5.053 11.704 8.202 14.684.987.936 1.92 1.819 2.599 2.669 1.138 1.426 1.752 4.837 1.644 9.125a.788.788 0 0 0 .767.807h.02a.787.787 0 0 0 .787-.767c.07-2.772-.094-7.776-1.987-10.148-.747-.935-1.719-1.856-2.748-2.83-3.132-2.965-7.031-6.656-7.715-13.692-.41-4.208-2.08-15.621-2.723-19.177-.163-.9.043-1.778.565-2.41.43-.521.925-.748 1.507-.699 1.144.1 2.48 1.267 3.49 3.045 1.642 2.89 2.72 7.291 3.337 10.476.133.681.328 1.258.6 1.763 1.297 2.423 3.51 3.637 5.65 4.811 1.256.69 2.555 1.402 3.686 2.362a10 10 0 0 1 1.187 1.183l.004.004a.785.785 0 0 0 1.254-.94c-.017-.027-.033-.055-.054-.08-.389-.46-.815-.883-1.29-1.294-.03-.025-.053-.051-.082-.075-.063-.053-.13-.097-.193-.149-.204-.166-.41-.326-.618-.479-.081-.06-.162-.121-.243-.178-.947-.663-1.931-1.207-2.893-1.735-1.43-.784-2.796-1.545-3.86-2.625.17-1.472.076-5.832-.1-13.016-.202-8.287-.454-18.6-.05-23.31.188-2.208 1.679-3.31 2.984-3.4 1.244-.082 2.765.722 3.333 3.239.014.062.037.12.064.174v24.482l-.016.06c-.05.173-.097.344-.138.505-1.505 6.022.484 10.678 7.635 17.827l15.232 13.451.013.012c-.335 1.04-.712 1.99-1.141 2.826-1.53 2.979-1.674 7.469-1.624 9.88.01.429.36.771.787.771h.017a.788.788 0 0 0 .771-.804c-.038-1.822.027-6.357 1.45-9.128.376-.732.714-1.541 1.02-2.415l.505.446h-.001a1.497 1.497 0 0 0 1.981.001l.523-.462c.308.88.648 1.694 1.026 2.43 1.423 2.771 1.488 7.306 1.45 9.128a.788.788 0 0 0 .771.804h.016a.788.788 0 0 0 .788-.771c.05-2.411-.094-6.901-1.624-9.88-.431-.84-.809-1.795-1.146-2.841l.014-.011 15.064-13.287c8.302-8.302 9.135-12.568 7.782-17.977a14.087 14.087 0 0 0-.129-.476V76.709a.782.782 0 0 0 .064-.174c.568-2.517 2.09-3.322 3.333-3.239 1.305.09 2.796 1.192 2.985 3.4.403 4.71.151 15.022-.051 23.308-.176 7.185-.27 11.546-.1 13.018-1.064 1.08-2.431 1.841-3.86 2.625-.961.528-1.945 1.072-2.892 1.734-.082.058-.163.12-.245.18a14.32 14.32 0 0 0-.616.477c-.064.052-.13.096-.194.15-.029.025-.053.051-.082.075a11.49 11.49 0 0 0-1.289 1.294c-.022.025-.037.053-.055.079a.786.786 0 0 0 1.254.941l.004-.004c.355-.419.743-.807 1.187-1.183 1.131-.96 2.43-1.672 3.685-2.362 2.141-1.174 4.354-2.388 5.652-4.811.271-.505.466-1.082.599-1.764.616-3.184 1.696-7.585 3.336-10.475 1.01-1.778 2.347-2.945 3.491-3.045.585-.048 1.077.178 1.508.7.521.63.727 1.51.564 2.409-.644 3.557-2.313 14.97-2.723 19.177-.684 7.036-4.583 10.727-7.716 13.693-1.029.974-2 1.894-2.747 2.829-1.893 2.372-2.058 7.376-1.987 10.148.01.428.361.767.787.767h.02a.787.787 0 0 0 .767-.807c-.108-4.288.506-7.699 1.644-9.125.678-.85 1.612-1.733 2.599-2.668 3.149-2.981 7.46-7.062 8.202-14.684.406-4.177 2.064-15.515 2.704-19.049.246-1.358-.082-2.704-.9-3.694-.763-.924-1.752-1.362-2.859-1.265-1.702.148-3.424 1.547-4.723 3.836-1.747 3.076-2.875 7.654-3.514 10.954-.033.171-.073.33-.116.483-.008-2.515.092-6.599.19-10.595.203-8.324.456-18.684.046-23.48-.23-2.684-2.059-4.673-4.447-4.837-1.117-.074-2.458.319-3.505 1.458v-3.098c0-3.29-2.698-5.076-5.237-5.085h-.019c-2.252 0-4.527 1.416-4.55 4.587l-.012 1.758c-1.081-.926-2.605-1.372-4.036-1.316-2.267.094-4.553 1.433-4.551 4.21l.003 6.648c-.739-.506-1.69-.802-2.747-.802h-.054c-1.655.015-3.326.802-4.31 2.458-.984-1.656-2.655-2.443-4.31-2.458-1.084-.016-2.051.28-2.8.793 0-2.545.001-4.84.003-6.64.001-2.776-2.285-4.115-4.552-4.21-1.428-.052-2.954.394-4.036 1.32l-.012-1.761C87.691 66.416 85.416 65 83.164 65h-.02c-2.538.01-5.236 1.795-5.236 5.085v3.098c-1.047-1.14-2.388-1.532-3.505-1.458-2.388.164-4.217 2.153-4.447 4.837-.41 4.796-.157 15.157.046 23.482.098 3.994.198 8.078.19 10.593a6.165 6.165 0 0 1-.116-.483c-.64-3.3-1.767-7.878-3.513-10.954-1.3-2.29-3.022-3.688-4.724-3.836-1.107-.096-2.096.34-2.859 1.265-.818.99-1.146 2.336-.9 3.694.64 3.534 2.298 14.871 2.704 19.048z"/>
        <path d="m88.663 92.613.202.722-.202-.722zm14.104 4.9.528-.532h-.001l-.527.533zm.085.086.53-.53-.002-.003-.528.533zm1.114 0-.529-.532-.002.001.531.53zm.084-.084-.527-.534-.002.002.529.532zm14.105-4.902-.202.722.202-.722zm9.38 9.525.728-.182-.728.182zm-7.332 16.447.496.562.018-.015.017-.017-.531-.53zm-16.794 14.81-.496.562.496.438.497-.437-.497-.563zm-16.942-14.96-.53.531.016.016.018.016.496-.563zm-3.317-51.86v-.75h-.002l.002.75zM86.14 69.6l-.75.005.75-.005zm.07 22.215.292.691.458-.194v-.498l-.75.001zm-.017.007-.288-.692-.004.001.292.691zM79.5 97.537l-.642-.388v.001l.642.387zm-.016.025h-.75v2.675l1.39-2.285-.64-.39zm12.213-25.96.031-.749-.03.75zm3.042 2.635h-.75.75zm-.005 16.835-.182.728.932.233v-.96h-.75zm-.016-.004.181-.728h-.003l-.178.728zm-6.48.029.202.722-.202-.722zm-.438.14-.22-.716-.013.004.233.713zm-.016.006h-.75l.001 1.024.976-.31-.227-.714zm-.04-16.63-.649-.377-.103.176.001.204.75-.003zm11.352 7.047.008-.75h-.01l.002.75zm3.532 3.244.742.108.017-.121-.021-.12-.738.133zm-.008.055-.744-.097-.014.112.019.111.739-.126zm.094 1.059.75-.01-.75.01zm.136 8.205-.75.014.75-.014zm.023 1.247-.493.565 1.274 1.11-.031-1.69-.75.015zm-6.548-3.917.253-.707-.005-.001-.248.708zm-.016-.006h-.75v.532l.502.176.248-.708zm14.225-7.837h.75v-.012l-.001-.013-.749.025zm.001 7.829.248.708.502-.176v-.532h-.75zm-.016.005-.248-.707h-.004l.252.707zm-6.062 3.496-.75.015.029 1.547 1.196-.982-.475-.58zm-.016-.847.75-.013-.75.013zM104.304 86l-.75.009.75-.01zm-.081-1.04.744-.099-.744.1zm-.008-.055-.738-.133-.021.12.017.12.742-.107zm14.778-10.623-.747.062.747-.062zm.107.33.75.004.001-.205-.103-.176-.648.377zm-.041 16.64-.227.715.975.308.002-1.023h-.75zm-.016-.006.226-.715-.004-.001-.222.716zm-.462-.148-.203.722.203-.722zm-6.456-.036.168.731.009-.002-.177-.729zm-.016.005h-.75v.945l.921-.215-.171-.73zm-.005-16.829-.75.001h.75zm11.588-7.662.002-.75h-.002v.75zm3.667 31.03-.644.385 1.394 2.33v-2.715h-.75zm-.016-.029.644-.385h-.001l-.643.385zm-6.693-5.745.293-.69-.005-.002-.288.692zm-.017-.007h-.75v.497l.458.194.292-.69zm-51.647 42.231.515-.544-.515.544zm2.599 2.669.586-.468-.586.468zm1.644 9.125.75.019-.75-.019zm.767.807.029-.75h-.01l-.019.75zm.807-.767-.75-.019.75.019zm-1.987-10.148-.586.468.586-.468zm-2.748-2.83-.515.545.516-.545zm-7.715-13.692.746-.073-.746.073zm-2.723-19.177.738-.134-.738.134zm.565-2.41.578.478-.578-.478zm1.507-.699.066-.747h-.003l-.063.747zm3.49 3.045.653-.37-.652.37zm3.337 10.476-.736.142v.001l.736-.143zm.6 1.763-.662.355.661-.355zm5.65 4.811.361-.657-.36.657zm3.686 2.362-.485.571v.001l.485-.572zm1.187 1.183-.573.484.006.008.567-.492zm.004.004.57-.488-.004-.003-.566.491zm1.106.09.484.573-.484-.573zm.148-1.03-.63.407.002.003.628-.41zm-.054-.08-.573.484.573-.484zm-1.29-1.294.49-.568-.002-.001-.489.569zm-.082-.075.486-.571-.002-.001-.484.572zm-.193-.149.474-.581v-.001l-.474.582zm-.618-.479.443-.605-.001-.001-.442.606zm-.243-.178-.43.614v.001l.43-.615zm-2.893-1.735-.36.658.36-.658zm-3.86-2.625-.745-.086-.04.356.25.256.535-.526zm-.1-13.016-.75.018.75-.018zm-.05-23.31.746.064-.747-.064zm2.984-3.4-.05-.748h-.001l.051.748zm3.333 3.239-.732.165.732-.165zm.064.174h.75v-.175l-.078-.157-.672.332zm0 24.482.721.206.029-.101v-.105h-.75zm-.016.06-.72-.21-.002.004.722.206zm-.138.505-.727-.182.727.182zm7.635 17.827-.53.53.016.017.018.015.496-.562zm15.232 13.451-.497.562.001.001.496-.563zm.013.012.714.23.151-.468-.37-.325-.495.563zm-1.141 2.826-.668-.343.668.343zm-1.624 9.88-.75.015.75-.015zm.804.771-.015-.75h-.01l-.01.001.035.749zm.771-.804-.75.015v.001l.75-.016zm1.45-9.128-.667-.343v.001l.667.342zm1.02-2.415.497-.562-.836-.737-.369 1.051.708.248zm.505.446-.497.562 1.023-1.096-.526.534zm-.001 0 .497-.563-1.023 1.097.526-.534zm1.981.001.496.562-.496-.562zm.523-.462.708-.247-.368-1.052-.836.737.496.562zm1.026 2.43-.667.343.667-.343zm1.45 9.128.75.016v-.001l-.75-.015zm.771.804.035-.749-.01-.001h-.01l-.015.75zm.804-.771-.75-.016.75.016zm-1.624-9.88-.667.342.667-.342zm-1.146-2.841-.493-.565-.372.325.151.47.714-.23zm.014-.011.493.565.003-.003-.496-.562zm15.064-13.287.496.562.018-.015.017-.017-.531-.53zm7.782-17.977.728-.182-.728.182zm-.113-.416.723-.202-.001-.001-.722.203zm-.016-.06h-.75v.106l.029.101.721-.207zm0-24.571-.672-.332-.078.157v.175h.75zm.064-.174.731.166.001-.001-.732-.165zm3.333-3.239.051-.748h-.001l-.05.748zm2.985 3.4-.747.064.747-.064zm-.051 23.308.75.019-.75-.019zm-.1 13.018.534.526.252-.256-.041-.356-.745.086zm-3.86 2.625.361.658-.361-.658zm-2.892 1.734-.43-.614.43.614zm-.245.18-.441-.607-.003.002.444.605zm-.616.477-.474-.582v.001l.474.581zm-.194.15-.485-.572.485.572zm-.082.075.49.568h.001l-.491-.568zm-1.289 1.294.571.486.002-.002-.573-.484zm-.055.079-.626-.412-.002.002.628.41zm.148 1.031-.484.573h.001l.483-.573zm1.106-.09-.566-.491-.003.003.569.488zm.004-.004.567.492.006-.008-.573-.484zm1.187-1.183.485.572-.485-.572zm3.685-2.362-.36-.657.36.657zm5.652-4.811.661.355-.661-.355zm.599-1.764.736.143-.736-.143zm3.336-10.475-.652-.37.652.37zm3.491-3.045-.062-.747h-.003l.065.747zm1.508.7-.579.477.579-.478zm.564 2.409-.738-.134.738.134zm-2.723 19.177-.746-.073.746.073zm-7.716 13.693-.515-.545.515.545zm-2.747 2.829.586.468-.586-.468zm-1.987 10.148.749-.019-.749.019zm.807.767-.019-.75-.01.001.029.749zm.767-.807-.749.019.749-.019zm1.644-9.125-.586-.468.586.468zm2.599-2.668.516.544-.516-.544zm8.202-14.684-.747-.073.747.073zm2.704-19.049.738.133-.738-.133zm-.9-3.694.579-.477-.579.477zm-2.859-1.265.065.747h.001l-.066-.747zM140.28 99.2l.652.37-.652-.37zm-3.514 10.954.736.143.001-.001-.737-.142zm-.116.483-.75.002 1.473.199-.723-.201zm.19-10.595-.75-.018.75.018zm.046-23.48.747-.064-.747.064zm-4.447-4.837.051-.748h-.002l-.049.748zm-3.505 1.458h-.75v1.925l1.303-1.417-.553-.508zM123.697 65l.003-.75h-.003V65zm-4.569 4.587-.75-.005.75.005zm-.012 1.758-.488.57 1.229 1.052.009-1.618-.75-.004zm-4.036-1.316-.029-.75h-.002l.031.75zm-4.551 4.21h-.75.75zm.003 6.648-.424.62 1.174.803v-1.423h-.75zm-2.801-.802.008.75h.004l-.012-.75zm-4.31 2.458-.645.383.645 1.085.645-1.085-.645-.383zm-4.31-2.458-.012.75h.004l.008-.75zm-2.8.793h-.75L95.56 82.3l1.174-.804-.424-.62zm.003-6.64.75.001h-.75zm-4.552-4.21.031-.749h-.004l-.027.75zm-4.036 1.32-.75.005.01 1.616 1.227-1.05-.487-.57zm-.012-1.761-.75.005.75-.005zM83.144 65v-.75h-.002l.002.75zm-5.236 8.183-.553.507 1.303 1.418v-1.925h-.75zm-3.505-1.458-.049-.749h-.002l.051.749zm-4.447 4.837-.747-.064.748.064zm.046 23.482-.75.018.75-.018zm.19 10.593-.723.202 1.473-.2-.75-.002zm-.116-.483-.736.142v.001l.736-.143zM66.563 99.2l-.653.37.653-.37zm-4.724-3.836.065-.747-.065.747zm-2.859 1.265.578.478-.578-.478zm-.9 3.694-.738.133.738-.133zm21.93 1.997c.802-3.207 2.97-7.333 8.855-8.985l-.405-1.444c-6.555 1.84-9.016 6.508-9.905 10.065l1.455.364zm8.855-8.985a9.607 9.607 0 0 1 2.609-.353v-1.5c-1 0-2.01.127-3.014.41l.405 1.443zm2.609-.353c4.046 0 8.065 2.399 10.766 5.066l1.054-1.068c-2.85-2.814-7.226-5.498-11.82-5.498v1.5zm10.765 5.064.085.085 1.056-1.065-.085-.085-1.056 1.066zm.083.083a1.56 1.56 0 0 0 2.174 0l-1.061-1.06c.005-.006.007-.005.003-.004a.086.086 0 0 1-.029.005.086.086 0 0 1-.029-.005c-.005-.001-.003-.002.002.003l-1.06 1.061zm2.173.001.084-.083-1.058-1.064-.084.084 1.058 1.063zm.082-.081c3.307-3.266 8.516-6.077 13.376-4.714l.405-1.444c-5.639-1.582-11.386 1.686-14.835 5.09l1.054 1.068zm13.376-4.714c5.885 1.652 8.053 5.778 8.855 8.985l1.455-.364c-.889-3.557-3.35-8.226-9.905-10.065l-.405 1.444zm8.855 8.985c.592 2.371.683 4.366-.254 6.696-.957 2.377-3.011 5.167-6.881 9.039l1.061 1.06c3.908-3.909 6.138-6.873 7.211-9.539 1.092-2.714.96-5.052.318-7.62l-1.455.364zm-7.101 15.702-16.794 14.811.993 1.125 16.793-14.811-.992-1.125zm-15.801 14.811-16.942-14.96-.993 1.125 16.942 14.959.993-1.124zm-16.909-14.928c-3.737-3.738-5.738-6.571-6.681-8.985-.93-2.376-.855-4.402-.306-6.6l-1.455-.364c-.605 2.42-.705 4.776.364 7.51 1.054 2.698 3.223 5.705 7.018 9.5l1.06-1.061zm-6.764-47.82c0-1.748 1.437-2.754 2.92-2.76l-.005-1.5c-2.073.008-4.415 1.467-4.415 4.26h1.5zm2.917-2.76h.015v-1.5h-.015v1.5zm.015 0c.587 0 1.138.164 1.532.498.372.316.685.852.692 1.781l1.5-.01c-.01-1.301-.47-2.277-1.222-2.915-.733-.621-1.66-.854-2.502-.854v1.5zm2.224 2.28c.034 4.597.057 12.172.07 22.21l1.5-.001a4104.243 4104.243 0 0 0-.07-22.22l-1.5.01zm.527 21.519a.041.041 0 0 0 .002-.001l-.005.002-.009.004.577 1.384h-.001.003a.76.76 0 0 0 .018-.008l-.585-1.381zm-.016.006c-3.487 1.474-5.684 3.768-7.043 6.02l1.284.775c1.217-2.016 3.183-4.078 6.343-5.413L85.9 91.13zm-7.043 6.02a.302.302 0 0 1 .009-.015c.001-.002.002-.003 0 0l-.007.011-.017.026 1.282.78-.009.013c0 .002-.001.003 0 0a1.427 1.427 0 0 0 .027-.041l-1.285-.774zm1.376.412V70.085h-1.5v27.477h1.5zm8.363-23.219c.054-.652.405-1.143.96-1.487.571-.354 1.34-.535 2.11-.504l.06-1.499c-1.016-.04-2.093.19-2.96.728-.885.549-1.565 1.433-1.665 2.638l1.495.124zm3.07-1.991c.6.025 1.207.194 1.641.505.403.29.682.714.681 1.38l1.5.001c.001-1.185-.54-2.049-1.306-2.6-.737-.528-1.652-.751-2.455-.785l-.062 1.499zm2.322 1.885-.005 16.835h1.5c0-6.254.002-12.794.005-16.834l-1.5-.001zm.927 16.108.008.002c.002 0 .002 0 0 0l-.008-.002a1.878 1.878 0 0 0-.017-.005l-.363 1.455-.009-.002c-.001 0-.002 0 0 0l.008.002.017.005.364-1.456zm-.02-.006c-2.199-.537-4.533-.618-6.86.035l.405 1.445c2.037-.572 4.105-.51 6.099-.023l.356-1.457zm-6.86.035a5.131 5.131 0 0 0-.258.081c-.078.027-.137.047-.198.066l.44 1.433c.087-.026.172-.055.237-.077.07-.024.127-.042.183-.058l-.404-1.445zm-.47.15c-.002.002-.005.003-.007.003l-.003.001h-.001.003l.453 1.43.018-.006.003-.001h.001c.001 0 .001 0 0 0l-.466-1.426zm.968.718c-.008-6.728-.022-12.324-.04-16.632l-1.5.006c.018 4.306.032 9.901.04 16.628l1.5-.002zM88.39 74.99c.107-.183.186-.401.206-.647l-1.495-.123v.001a.082.082 0 0 1-.007.014l1.296.755zm8.669 8.745c.013-.374.209-.682.583-.925.388-.252.927-.398 1.457-.4l-.007-1.5c-.768.003-1.599.208-2.267.642-.683.444-1.231 1.158-1.265 2.131l1.499.052zm2.03-1.325a2.76 2.76 0 0 1 1.688.583c.493.392.929 1.03 1.111 2.044l1.477-.267c-.241-1.336-.85-2.312-1.655-2.952a4.263 4.263 0 0 0-2.607-.908l-.015 1.5zm2.795 2.386-.009.066 1.488.194a.433.433 0 0 1 .006-.044l-1.485-.216zm-.004.29c.048.285.078.597.083.941l1.5-.018a7.531 7.531 0 0 0-.105-1.176l-1.478.252zm.083.941c.033 2.71.084 5.46.136 8.21l1.499-.028c-.051-2.75-.103-5.496-.135-8.2l-1.5.018zm.136 8.21.023 1.247 1.5-.028-.024-1.247-1.499.028zm1.266.667c-1.886-1.644-4.222-3.14-6.788-4.057l-.505 1.412c2.36.844 4.536 2.232 6.307 3.776l.986-1.13zm-6.793-4.06-.013-.004-.008-.002c-.001 0-.001 0 0 0l.005.001-.496 1.416a.934.934 0 0 0 .02.007h.002l-.006-.002.496-1.415zm.486.703.001-7.837h-1.5l-.001 7.837h1.5zm10.695-9.137c.524-.005 1.059.14 1.446.393.374.244.571.556.584.933l1.499-.05c-.033-.973-.579-1.692-1.262-2.139-.669-.437-1.504-.644-2.28-.637l.013 1.5zm2.03 1.3.001 7.83 1.5-.001-.001-7.829h-1.5zm.503 7.121.004-.001h-.001l-.007.002a.562.562 0 0 1-.012.005l.496 1.415-.004.002h.001l.007-.003a.304.304 0 0 1 .012-.004l-.496-1.416zm-.02.007c-2.344.835-4.494 2.151-6.286 3.623l.951 1.16c1.683-1.382 3.685-2.603 5.838-3.37l-.503-1.413zm-5.061 4.188-.015-.846-1.5.027.016.848 1.499-.029zm-.015-.847c-.052-2.747-.104-5.489-.136-8.19l-1.5.019c.033 2.707.084 5.454.136 8.2l1.5-.029zm-.136-8.189a9.497 9.497 0 0 0-.087-1.13l-1.487.198c.041.311.07.622.074.95l1.5-.018zm-.087-1.13a24.2 24.2 0 0 0-.009-.064l-1.485.215.007.048 1.487-.2zm-.013.177c.182-1.013.618-1.652 1.111-2.044a2.76 2.76 0 0 1 1.689-.583l-.015-1.5a4.263 4.263 0 0 0-2.607.908c-.805.64-1.414 1.616-1.655 2.953l1.477.266zm10.223-12.685c.775-.032 1.544.148 2.112.502.552.344.903.835.957 1.489l1.495-.124c-.1-1.203-.775-2.088-1.659-2.638-.867-.54-1.946-.77-2.967-.728l.062 1.499zm3.069 1.991c.02.246.099.463.206.646l1.296-.755-.007-.014v-.001l-1.495.124zm.104.265c-.019 4.31-.033 9.91-.041 16.642l1.5.001c.008-6.73.022-12.329.041-16.636l-1.5-.007zm.935 15.928h.004-.001c-.001 0-.004 0-.007-.002l-.012-.004-.453 1.43h-.004.002l.006.002.012.004.453-1.43zm-.02-.007c-.076-.024-.329-.112-.482-.155l-.405 1.445c.169.047.207.07.443.143l.444-1.433zm-.481-.155c-2.319-.65-4.644-.573-6.835-.041l.353 1.457c1.987-.481 4.047-.54 6.076.029l.406-1.445zm-6.826-.044-.029.008a1.243 1.243 0 0 0-.013.003h.003l.02-.006.341 1.461a.944.944 0 0 0 .038-.01l-.004.001a.724.724 0 0 1-.021.005l-.335-1.462zm.901.736c-.001-6.252-.002-12.79-.005-16.83l-1.5.002c.003 4.038.004 10.576.005 16.828h1.5zm-.005-16.829c0-.666.278-1.09.681-1.38.434-.311 1.04-.48 1.642-.505l-.062-1.499c-.803.034-1.718.257-2.454.785-.767.551-1.308 1.415-1.307 2.6l1.5-.001zm8.599-4.633c.007-.93.32-1.465.692-1.781.393-.334.945-.498 1.532-.498v-1.5c-.842 0-1.769.233-2.502.854-.753.638-1.212 1.614-1.222 2.914l1.5.011zm2.224-2.279h.015v-1.5h-.015v1.5zm.012 0c1.483.006 2.92 1.011 2.92 2.76h1.5c0-2.793-2.342-4.252-4.415-4.26l-.005 1.5zm2.92 2.76v27.52h1.5v-27.52h-1.5zm1.394 27.135.007.012c.001.002.001.003 0 0l-.008-.014-.015-.027-1.288.77-.007-.012c-.001-.001-.001-.002 0 0l.008.014.015.027 1.288-.77zm-.017-.03c-1.354-2.258-3.549-4.567-7.043-6.05l-.586 1.381c3.165 1.344 5.13 3.419 6.343 5.441l1.286-.771zm-7.048-6.051-.012-.005a.03.03 0 0 0-.006-.003c-.001 0-.001 0 0 0l.006.003-.585 1.381.014.006.008.003h.002c0 .001 0 .001 0 0h-.004l.577-1.385zm.445.686c.013-10.043.036-17.622.07-22.22l-1.5-.012c-.034 4.604-.057 12.187-.07 22.23l1.5.002zm-61.345 27.619c.77 7.918 5.274 12.166 8.432 15.156l1.031-1.089c-3.138-2.971-7.258-6.886-7.97-14.212l-1.493.145zM68.47 134.6c1 .946 1.89 1.791 2.529 2.592l1.172-.936c-.718-.899-1.693-1.821-2.67-2.745L68.47 134.6zm2.529 2.592c.45.565.862 1.624 1.137 3.154.271 1.505.396 3.377.343 5.484l1.5.038c.055-2.181-.073-4.159-.367-5.788-.289-1.604-.754-2.963-1.44-3.824l-1.173.936zm1.48 8.638a1.538 1.538 0 0 0 1.498 1.576l.038-1.5a.037.037 0 0 1-.037-.038l-1.5-.038zm1.488 1.575.05.001v-1.5h-.003.01l-.057 1.499zm.05.001c.83 0 1.515-.663 1.536-1.499l-1.5-.037c0 .02-.017.036-.037.036v1.5zm1.536-1.498c.036-1.407.013-3.397-.265-5.349-.273-1.923-.809-3.936-1.886-5.286l-1.172.936c.815 1.022 1.308 2.696 1.573 4.561.261 1.836.285 3.734.25 5.1l1.5.038zm-2.15-10.634c-.787-.985-1.8-1.943-2.819-2.907l-1.031 1.089c1.039.984 1.97 1.866 2.677 2.753l1.172-.935zm-2.819-2.907c-3.124-2.957-6.83-6.482-7.485-13.221l-1.493.146c.713 7.332 4.805 11.19 7.947 14.164l1.031-1.089zM63.1 119.146c-.412-4.232-2.084-15.666-2.731-19.238l-1.476.268c.641 3.54 2.307 14.933 2.714 19.116l1.493-.146zm-2.731-19.238c-.129-.71.041-1.358.405-1.798l-1.157-.956c-.68.824-.921 1.933-.724 3.022l1.476-.268zm.405-1.799c.3-.362.566-.454.866-.428l.126-1.495c-.865-.073-1.588.289-2.149.969l1.157.954zm.864-.429c.355.031.83.242 1.367.711.529.46 1.065 1.127 1.537 1.957l1.304-.74c-.538-.948-1.175-1.755-1.854-2.347-.67-.584-1.435-1.006-2.224-1.075l-.13 1.494zm2.904 2.668c1.574 2.773 2.636 7.066 3.252 10.248l1.472-.285c-.616-3.186-1.713-7.697-3.42-10.703l-1.304.74zm3.252 10.249c.144.74.361 1.391.674 1.975l1.322-.709c-.228-.426-.403-.93-.524-1.552l-1.472.286zm.674 1.975c1.419 2.646 3.837 3.954 5.952 5.114l.721-1.315c-2.166-1.189-4.173-2.31-5.35-4.508l-1.323.709zm5.952 5.114c1.266.695 2.497 1.373 3.56 2.275l.971-1.143c-1.198-1.017-2.565-1.764-3.81-2.447l-.721 1.315zm3.56 2.276c.415.351.774.709 1.1 1.095l1.146-.968c-.383-.453-.8-.87-1.275-1.272l-.97 1.145zm1.106 1.103a.959.959 0 0 0 .057.059l.016.014.005.004v.001h.001l-.005-.004-.015-.014a.684.684 0 0 1-.055-.057l1.133-.982a.595.595 0 0 0-.073-.074l-.004-.004-.001-.001.004.004.015.014a.668.668 0 0 1 .056.057l-1.134.983zm.001 0c.549.64 1.512.722 2.16.175l-.968-1.146a.037.037 0 0 1-.053-.005l-1.139.976zm2.16.175a1.535 1.535 0 0 0 .292-2.014l-1.256.821a.04.04 0 0 1 .007.028.029.029 0 0 1-.011.019l.968 1.146zm.294-2.011a1.41 1.41 0 0 0-.112-.157l-1.145.969a.31.31 0 0 1-.02-.024l-.004-.007a.012.012 0 0 1-.002-.002l.002.002a.067.067 0 0 0 .004.007l.007.011.01.016 1.26-.815zm-.112-.156a12.227 12.227 0 0 0-1.373-1.378l-.98 1.135c.45.389.848.785 1.208 1.211l1.145-.968zm-1.374-1.379-.012-.012c-.012-.011-.04-.038-.072-.065l-.972 1.143.01.008c.01.01.037.036.068.063l.978-1.137zm-.086-.078c-.05-.043-.1-.08-.132-.104l-.07-.054-.95 1.162c.048.038.095.073.123.094a.88.88 0 0 1 .06.047l.97-1.145zm-.203-.159c-.213-.173-.43-.341-.649-.502l-.887 1.209c.198.145.394.297.588.456l.948-1.163zm-.65-.503c-.063-.046-.167-.125-.255-.187l-.86 1.23c.075.052.13.096.23.168l.885-1.211zm-.255-.186c-.985-.69-2.004-1.252-2.962-1.778l-.722 1.315c.965.529 1.915 1.055 2.823 1.691l.86-1.228zm-2.962-1.778c-1.446-.793-2.712-1.505-3.686-2.494l-1.07 1.052c1.154 1.172 2.621 1.982 4.034 2.757l.722-1.315zm-3.475-1.882c.091-.793.108-2.302.084-4.46a729.78 729.78 0 0 0-.18-8.66l-1.5.036c.088 3.593.156 6.474.18 8.64.024 2.186.004 3.592-.075 4.272l1.49.172zm-.096-13.12c-.203-8.314-.452-18.57-.054-23.228l-1.494-.128c-.407 4.763-.153 15.132.048 23.392l1.5-.037zm-.053-23.228c.158-1.855 1.367-2.652 2.288-2.715l-.102-1.497c-1.69.116-3.462 1.522-3.681 4.084l1.495.128zm2.287-2.715c.438-.029.938.096 1.39.472.453.378.905 1.048 1.161 2.183l1.464-.33c-.312-1.382-.905-2.372-1.665-3.005a3.455 3.455 0 0 0-2.45-.817l.1 1.497zm2.552 2.656c.03.135.077.249.122.34l1.346-.664c-.01-.018-.008-.02-.006-.008l-1.462.332zm.045.008v24.482h1.5V76.709h-1.5zm.028 24.277-.012.044-.002.009v.002l1.44.419.013-.047.004-.016-1.443-.411zm-.016.059c-.05.176-.1.356-.143.529l1.455.364c.037-.149.082-.311.13-.482l-1.442-.411zm-.143.529c-.788 3.151-.666 5.99.609 8.968 1.26 2.942 3.625 5.975 7.223 9.571l1.06-1.061c-3.553-3.552-5.758-6.422-6.904-9.101-1.131-2.642-1.25-5.142-.533-8.013l-1.455-.364zm7.866 18.571 15.231 13.451.993-1.124-15.232-13.451-.992 1.124zm15.232 13.452.014.012.99-1.126-.013-.012-.991 1.126zm-.205-.781c-.326 1.012-.688 1.922-1.095 2.713l1.335.685c.452-.881.844-1.871 1.188-2.938l-1.428-.46zm-1.095 2.713c-.823 1.603-1.256 3.571-1.481 5.404-.227 1.844-.25 3.608-.224 4.834l1.5-.031c-.026-1.184-.002-2.871.213-4.62.216-1.758.62-3.526 1.327-4.902l-1.335-.685zm-1.706 10.238a1.537 1.537 0 0 0 1.537 1.506v-1.5a.038.038 0 0 1-.037-.037l-1.5.031zm1.537 1.506.053-.001-.072-1.498.019-.001h.002-.002v1.5zm.033 0a1.538 1.538 0 0 0 1.505-1.57l-1.5.032c0 .02-.016.037-.036.038l.03 1.5zm1.505-1.57a32.266 32.266 0 0 1 .173-4.109c.186-1.679.546-3.397 1.194-4.66l-1.334-.685c-.775 1.507-1.159 3.442-1.351 5.179a33.935 33.935 0 0 0-.182 4.306l1.5-.031zm1.367-8.769a19.91 19.91 0 0 0 1.061-2.509l-1.416-.497a18.354 18.354 0 0 1-.979 2.32l1.334.686zm-.143-2.195.504.445.993-1.124-.504-.446-.993 1.125zm1.527-.651-1.053 1.068 1.053-1.068zm-1.023 1.096c.425.375.957.562 1.487.562v-1.5a.743.743 0 0 1-.494-.187l-.993 1.125zm1.487.562c.53 0 1.062-.187 1.486-.561l-.992-1.125a.747.747 0 0 1-.494.186v1.5zm1.486-.561.523-.461-.992-1.125-.523.461.992 1.125zm-.681-.776c.317.905.67 1.752 1.067 2.525l1.334-.685c-.359-.7-.686-1.481-.985-2.335l-1.416.495zm1.067 2.525c.648 1.263 1.008 2.981 1.194 4.66.185 1.663.192 3.217.173 4.109l1.5.031c.019-.929.012-2.553-.182-4.306-.192-1.737-.576-3.672-1.351-5.179l-1.334.685zm1.367 8.769a1.538 1.538 0 0 0 1.505 1.57l.031-1.5c-.02-.001-.037-.018-.036-.038l-1.5-.032zm1.485 1.569.052.001v-1.5h.001l.018.001-.071 1.498zm.052.001c.835 0 1.52-.667 1.537-1.506l-1.499-.031a.038.038 0 0 1-.038.037v1.5zm1.537-1.506c.026-1.226.003-2.99-.224-4.834-.225-1.833-.658-3.801-1.481-5.404l-1.335.685c.707 1.376 1.111 3.144 1.327 4.902a33.13 33.13 0 0 1 .214 4.62l1.499.031zm-1.705-10.238c-.408-.795-.772-1.71-1.1-2.727l-1.428.459c.346 1.073.739 2.068 1.193 2.953l1.335-.685zm-1.321-1.933.014-.011-.986-1.13-.014.011.986 1.13zm.017-.014 15.064-13.287-.992-1.125-15.064 13.287.992 1.125zm15.099-13.319c4.174-4.175 6.546-7.406 7.68-10.333 1.15-2.968.999-5.554.299-8.356l-1.455.364c.652 2.608.761 4.859-.243 7.451-1.02 2.633-3.215 5.686-7.342 9.813l1.061 1.061zm7.979-18.689c-.036-.145-.08-.3-.118-.436l-1.445.403c.041.147.078.277.108.397l1.455-.364zm-.119-.437-.005-.021-.012-.042-1.442.413c.015.051-.007-.024.015.056l1.444-.406zm.012.143V76.709h-1.5v24.571h1.5zm-.077-24.24c.045-.09.092-.204.122-.34l-1.462-.331c.002-.011.004-.01-.005.008l1.345.664zm.123-.34c.256-1.135.708-1.806 1.161-2.183a1.953 1.953 0 0 1 1.39-.472l.1-1.497a3.449 3.449 0 0 0-2.449.816c-.761.633-1.354 1.624-1.666 3.006l1.464.33zm2.55-2.655c.921.063 2.13.86 2.289 2.715l1.494-.128c-.219-2.562-1.992-3.968-3.681-4.084l-.102 1.497zm2.289 2.715c.398 4.657.149 14.914-.054 23.226l1.5.037c.201-8.26.455-18.628.048-23.39l-1.494.127zm-.054 23.226a732.766 732.766 0 0 0-.18 8.661c-.024 2.159-.007 3.668.085 4.461l1.49-.172c-.079-.68-.099-2.087-.075-4.272.024-2.166.092-5.048.18-8.641l-1.5-.037zm.115 12.51c-.974.989-2.24 1.701-3.686 2.494l.722 1.315c1.413-.775 2.88-1.585 4.033-2.757l-1.069-1.052zm-3.686 2.494c-.958.526-1.976 1.088-2.961 1.777l.861 1.229c.908-.636 1.858-1.162 2.822-1.691l-.722-1.315zm-2.961 1.777c-.087.061-.195.143-.256.187l.882 1.213c.103-.075.157-.117.235-.171l-.861-1.229zm-.259.189c-.218.16-.434.328-.646.5l.948 1.163c.194-.158.389-.31.586-.454l-.888-1.209zm-.646.501a4.292 4.292 0 0 1-.072.054c-.032.025-.082.062-.133.105l.97 1.144c.012-.01.028-.023.061-.047.028-.021.075-.056.123-.094l-.949-1.162zm-.205.159c-.033.028-.06.054-.073.066l-.015.014.982 1.135.067-.062.009-.009-.97-1.144zm-.087.08c-.502.433-.956.884-1.372 1.377l1.146.968c.359-.426.756-.821 1.206-1.21l-.98-1.135zm-1.371 1.375a1.19 1.19 0 0 0-.084.114l-.02.03-.004.007-.001.002 1.252.825a.279.279 0 0 0 .02-.031l.005-.008.002-.003-.006.009-.021.027-1.143-.972zm-.111.155a1.536 1.536 0 0 0 .292 2.014l.968-1.146a.036.036 0 0 1-.007-.009c-.002-.002-.003-.006-.004-.01a.04.04 0 0 1 .007-.028l-1.256-.821zm.293 2.014c.647.546 1.61.465 2.159-.175l-1.139-.976a.038.038 0 0 1-.053.005l-.967 1.146zm2.156-.172a.63.63 0 0 1-.055.057l-.015.014a.036.036 0 0 0-.005.004l.001-.001.001-.001.004-.003.016-.015a.635.635 0 0 0 .057-.058l-1.134-.983a.807.807 0 0 1 .055-.057l.015-.013.005-.005v.001l-.002.001-.004.003-.016.015a.567.567 0 0 0-.056.059l1.133.982zm.01-.011a9.245 9.245 0 0 1 1.099-1.095l-.97-1.145c-.474.403-.892.819-1.275 1.272l1.146.968zm1.099-1.095c1.064-.903 2.295-1.581 3.561-2.276l-.721-1.315c-1.245.683-2.612 1.43-3.81 2.447l.97 1.144zm3.561-2.276c2.114-1.16 4.533-2.468 5.952-5.114l-1.322-.709c-1.178 2.198-3.185 3.319-5.351 4.508l.721 1.315zm5.952-5.114c.313-.584.53-1.235.674-1.976l-1.473-.286c-.12.624-.295 1.127-.523 1.553l1.322.709zm.674-1.976c.616-3.182 1.678-7.475 3.252-10.248l-1.304-.74c-1.707 3.006-2.804 7.517-3.421 10.703l1.473.285zm3.252-10.248c.472-.83 1.008-1.496 1.537-1.957.537-.469 1.012-.68 1.367-.71l-.13-1.495c-.789.069-1.554.491-2.224 1.075-.679.592-1.316 1.4-1.854 2.347l1.304.74zm2.901-2.667c.303-.025.568.066.867.429l1.157-.955c-.561-.68-1.281-1.041-2.148-.97l.124 1.496zm.867.429c.364.44.534 1.088.405 1.798l1.476.268c.197-1.09-.044-2.198-.724-3.021l-1.157.955zm.405 1.798c-.647 3.573-2.319 15.007-2.731 19.238l1.493.146c.407-4.183 2.073-15.575 2.714-19.116l-1.476-.268zm-2.731 19.238c-.655 6.74-4.361 10.264-7.485 13.221l1.031 1.089c3.142-2.974 7.234-6.832 7.947-14.164l-1.493-.146zm-7.485 13.221c-1.019.964-2.032 1.922-2.818 2.907l1.172.935c.708-.887 1.638-1.769 2.677-2.753l-1.031-1.089zm-2.818 2.907c-1.077 1.349-1.613 3.362-1.886 5.285-.278 1.952-.301 3.942-.265 5.349l1.499-.038c-.034-1.366-.01-3.264.251-5.1.265-1.865.758-3.539 1.573-4.561l-1.172-.935zm-2.151 10.633a1.538 1.538 0 0 0 1.537 1.499v-1.5a.038.038 0 0 1-.038-.036l-1.499.037zm1.537 1.499.049-.001-.058-1.498.011-.001h-.002v1.5zm.039 0a1.538 1.538 0 0 0 1.498-1.576l-1.499.038c0 .02-.016.038-.037.038l.038 1.5zm1.498-1.576c-.053-2.107.072-3.979.343-5.484.276-1.53.686-2.589 1.137-3.154l-1.172-.936c-.687.861-1.152 2.22-1.441 3.824-.294 1.629-.422 3.607-.366 5.788l1.499-.038zm1.48-8.638c.639-.801 1.53-1.646 2.529-2.592l-1.031-1.089c-.976.924-1.952 1.846-2.67 2.745l1.172.936zm2.529-2.592c3.158-2.99 7.662-7.238 8.432-15.156l-1.493-.145c-.713 7.326-4.832 11.241-7.97 14.212l1.031 1.089zm8.432-15.156c.404-4.152 2.059-15.469 2.696-18.988l-1.476-.267c-.643 3.55-2.304 14.909-2.713 19.11l1.493.145zm2.696-18.988c.282-1.556-.09-3.13-1.059-4.304l-1.157.955c.666.806.95 1.924.74 3.082l1.476.267zm-1.059-4.305c-.906-1.096-2.128-1.655-3.503-1.534l.131 1.494c.839-.074 1.594.244 2.215.996l1.157-.956zm-3.503-1.534c-2.06.18-3.958 1.83-5.311 4.213l1.305.74c1.246-2.195 2.792-3.342 4.136-3.459l-.13-1.494zm-5.311 4.213c-1.812 3.191-2.957 7.877-3.597 11.181l1.473.285c.638-3.294 1.748-7.766 3.429-10.725l-1.305-.741zm-3.597 11.181a5.582 5.582 0 0 1-.102.424l1.445.403c.046-.166.091-.345.129-.541l-1.472-.286zm1.37.623c-.007-2.502.092-6.573.189-10.573l-1.499-.037c-.098 3.99-.198 8.087-.19 10.615l1.5-.005zm.189-10.573c.203-8.299.458-18.714.044-23.563l-1.495.128c.406 4.743.156 15.048-.048 23.398l1.499.037zm.044-23.563c-.255-2.985-2.321-5.328-5.143-5.521l-.102 1.496c1.955.134 3.547 1.77 3.75 4.153l1.495-.128zm-5.145-5.522c-1.325-.087-2.894.38-4.106 1.7l1.105 1.015c.881-.96 1.995-1.278 2.902-1.218l.099-1.497zm-2.804 2.207v-3.098h-1.5v3.098h1.5zm0-3.098c0-3.803-3.14-5.825-5.984-5.835l-.005 1.5c2.233.008 4.489 1.558 4.489 4.335h1.5zm-5.987-5.835h-.019v1.5h.019v-1.5zm-.019 0c-1.276 0-2.593.4-3.606 1.291-1.028.905-1.681 2.262-1.694 4.04l1.5.011c.01-1.391.506-2.328 1.185-2.924.693-.61 1.639-.918 2.615-.918v-1.5zm-5.3 5.332-.012 1.758 1.5.01.012-1.758-1.5-.01zm1.226 1.193c-1.246-1.067-2.964-1.558-4.553-1.496l.058 1.499c1.273-.05 2.604.352 3.519 1.136l.976-1.139zm-4.555-1.496c-1.259.053-2.563.45-3.568 1.266-1.026.833-1.704 2.074-1.702 3.694l1.5-.001c-.001-1.157.464-1.973 1.147-2.528.704-.571 1.677-.89 2.685-.932l-.062-1.499zm-5.27 4.96.003 6.648h1.5l-.003-6.649-1.5.001zm1.177 6.03c-.874-.599-1.974-.934-3.171-.934v1.5c.918 0 1.718.257 2.323.671l.848-1.238zm-3.171-.934h-.065l.023 1.5h.042v-1.5zm-.061 0c-1.888.018-3.815.92-4.948 2.825l1.29.766c.836-1.407 2.249-2.078 3.673-2.091l-.015-1.5zm-3.658 2.825c-1.133-1.905-3.06-2.807-4.948-2.825l-.014 1.5c1.423.013 2.836.684 3.672 2.091l1.29-.766zm-4.944-2.825c-1.226-.018-2.349.317-3.235.924l.847 1.238c.612-.42 1.425-.676 2.365-.662l.023-1.5zm-2.062 1.543.004-6.639-1.5-.001-.004 6.64h1.5zm.004-6.639c0-1.62-.677-2.861-1.703-3.694-1.005-.815-2.309-1.213-3.568-1.266l-.062 1.499c1.008.042 1.98.36 2.685.932.683.555 1.148 1.371 1.148 2.528l1.5.001zm-5.274-4.96c-1.586-.058-3.305.432-4.552 1.5l.975 1.14c.917-.785 2.25-1.188 3.521-1.141l.056-1.499zm-3.314 2.065-.012-1.763-1.5.012.012 1.76 1.5-.01zm-.012-1.762c-.013-1.78-.666-3.136-1.694-4.04-1.013-.892-2.33-1.292-3.606-1.292v1.5c.977 0 1.922.308 2.615.918.679.596 1.175 1.533 1.185 2.924l1.5-.01zm-5.3-5.332h-.02v1.5h.02v-1.5zm-.022 0c-2.844.01-5.984 2.032-5.984 5.835h1.5c0-2.777 2.256-4.327 4.49-4.335l-.006-1.5zm-5.984 5.835v3.098h1.5v-3.098h-1.5zm1.302 2.59c-1.212-1.32-2.78-1.786-4.106-1.699l.099 1.497c.908-.06 2.022.258 2.902 1.217l1.105-1.015zm-4.108-1.698c-2.822.193-4.888 2.536-5.143 5.521l1.495.128c.204-2.384 1.795-4.019 3.75-4.153l-.102-1.496zm-5.143 5.521c-.414 4.849-.159 15.265.044 23.564l1.5-.036c-.204-8.351-.455-18.656-.05-23.4l-1.494-.128zm.044 23.564c.097 4 .196 8.071.189 10.572l1.5.005c.008-2.528-.092-6.624-.19-10.613l-1.5.036zm1.66 10.373a5.398 5.398 0 0 1-.101-.424l-1.472.286c.038.196.083.375.13.542l1.444-.404zm-.1-.424c-.64-3.304-1.786-7.99-3.598-11.181l-1.305.74c1.68 2.96 2.791 7.432 3.43 10.726l1.472-.285zM67.214 98.83c-1.353-2.383-3.251-4.034-5.31-4.213l-.131 1.494c1.344.117 2.89 1.264 4.136 3.46l1.305-.741zm-5.311-4.213c-1.374-.119-2.596.437-3.502 1.534l1.157.956c.62-.752 1.375-1.069 2.216-.996l.129-1.494zm-3.502 1.534c-.97 1.175-1.342 2.749-1.06 4.305l1.476-.267c-.21-1.158.074-2.276.74-3.082l-1.156-.956zm-1.06 4.305c.637 3.519 2.292 14.836 2.696 18.988l1.493-.145c-.409-4.202-2.07-15.561-2.713-19.11l-1.476.267z"/>
    </g>
</svg>
