<svg width="174" height="175" fill="none" xmlns="http://www.w3.org/2000/svg">
    <path fill-rule="evenodd" clip-rule="evenodd" d="M56.12 117.84c-.315-.851-1.526-1.224-2.675-.798-1.15.425-1.777 1.477-1.411 2.309a446.29 446.29 0 0 1 6.871 16.755c.33.843 1.31 1.251 2.189.928.88-.323 1.376-1.274 1.091-2.134a507.997 507.997 0 0 0-6.065-17.06zM120.091 117.042c-1.149-.426-2.36-.053-2.675.798a509.557 509.557 0 0 0-6.065 17.06c-.285.86.212 1.81 1.091 2.134.88.323 1.859-.085 2.189-.928a443.955 443.955 0 0 1 6.872-16.755c.366-.832-.262-1.884-1.412-2.309zM59.903 104.739c-2.548.664-4.105 2.651-3.513 4.286a563.824 563.824 0 0 1 10.497 33.053c.487 1.665 2.1 2.646 3.622 2.254 1.52-.395 2.524-2.048 2.201-3.754a805.251 805.251 0 0 0-7.427-33.866c-.392-1.692-2.833-2.639-5.38-1.973zM73.988 107.478c-1.82.231-3.105 1.508-2.87 2.767a1052.495 1052.495 0 0 1 4.2 25.233 2.37 2.37 0 0 0 2.62 1.979 2.4 2.4 0 0 0 2.07-2.571c-.765-8.49-1.591-16.976-2.479-25.457-.124-1.274-1.722-2.184-3.541-1.951zM86.768 97.676c-3.235-.002-5.754 1.826-5.607 3.862a3214.153 3214.153 0 0 1 2.207 40.727c.115 2.041 1.643 3.624 3.4 3.625 1.757-.001 3.285-1.584 3.4-3.625a3203.03 3203.03 0 0 1 2.207-40.727c.148-2.036-2.372-3.864-5.607-3.862zM113.633 104.739c-2.547-.666-4.988.281-5.38 1.973a802.72 802.72 0 0 0-7.426 33.866c-.324 1.706.68 3.359 2.2 3.754 1.521.392 3.135-.589 3.622-2.254a564.802 564.802 0 0 1 10.496-33.053c.593-1.635-.963-3.622-3.512-4.286zM99.549 107.478c-1.82-.233-3.418.677-3.542 1.951a1777.334 1777.334 0 0 0-2.48 25.457 2.4 2.4 0 0 0 2.072 2.571 2.37 2.37 0 0 0 2.62-1.979 1052 1052 0 0 1 4.2-25.233c.234-1.259-1.051-2.536-2.87-2.767z" fill="#F37271"/>
    <path fill-rule="evenodd" clip-rule="evenodd" d="M86.768.518C38.848.518 0 41.01 0 90.96c0 25.583 10.191 48.686 26.573 65.137.623.626 1.598-.224 1.061-.926-11.856-15.487-19.028-35.677-19.028-57.761 0-48.784 34.995-80.534 78.162-80.534 43.168 0 78.162 31.75 78.162 80.534 0 22.084-7.172 42.274-19.028 57.761-.537.702.438 1.552 1.061.926 16.382-16.451 26.573-39.554 26.573-65.137 0-49.95-38.847-90.44-86.768-90.44z" fill="#942322"/>
    <path fill-rule="evenodd" clip-rule="evenodd" d="M38.343 92.507a4.516 4.516 0 0 0-5.246-2.662l-12.724 3.113c-2.777.68-4.232 3.739-3.005 6.322l33.2 69.946a4.516 4.516 0 0 0 6.81 1.659l7.39-5.616a4.515 4.515 0 0 0 1.44-5.319L38.344 92.507zM14.605 98.726a2.367 2.367 0 0 0-3.338-1.011l-.012.007c-.56.334-.904.943-.892 1.596.232 11.981 2.655 23.692 7.032 34.422l5.202 10.692a86.279 86.279 0 0 0 6.417 9.681c.572.747.674 1.726.265 2.554l-.003.007c-.226.447-.254.968-.035 1.418l4.485 9.221c.215.445.566.81 1 1.045l11.399 6.177a2.36 2.36 0 0 0 2.188.035l.145-.074a2.363 2.363 0 0 0 1.072-3.139L14.605 98.726zM153.163 92.958l-12.724-3.113a4.516 4.516 0 0 0-5.246 2.662l-27.865 67.443a4.515 4.515 0 0 0 1.441 5.319l7.388 5.616a4.516 4.516 0 0 0 6.812-1.659l33.199-69.946a4.515 4.515 0 0 0-3.005-6.322zM150.938 144.436l5.206-10.701c4.376-10.728 6.797-22.437 7.029-34.417a1.822 1.822 0 0 0-.892-1.596l-.011-.007a2.367 2.367 0 0 0-3.339 1.01l-34.926 72.632a2.366 2.366 0 0 0 1.073 3.139l.146.073a2.36 2.36 0 0 0 2.188-.034l11.398-6.177c.435-.235.785-.6 1-1.044l4.485-9.222c.219-.45.191-.971-.034-1.418l-.003-.007a2.416 2.416 0 0 1 .264-2.554 86.106 86.106 0 0 0 6.416-9.677z" fill="#942322"/>
</svg>
