<svg width="190" height="54" fill="none" xmlns="http://www.w3.org/2000/svg">
    <path d="M72.639 16.169h-9.454v5.018h11.307v3.77h-15.4V4.064h15.4v3.804H63.185v4.662h9.454v3.639zM93.112 24.957H78.097V4.064h4.092v17.123h10.923v3.77zM109.624 16.169h-9.454v5.018h11.308v3.77h-15.4V4.064h15.4v3.804H100.17v4.662h9.454v3.639zM125.655 24.957h-4.503l-7.601-20.893h4.442l5.424 16.039.062-.007 5.403-16.032h4.346l-7.573 20.893zM152.905 24.957h-4.085v-6.262h-10.189v6.262h-3.996V12.722c0-2.835.788-5.055 2.362-6.66 1.575-1.604 3.822-2.407 6.742-2.41 2.918 0 5.175.804 6.77 2.41 1.595 1.607 2.394 3.827 2.396 6.66v12.235zm-4.092-9.97v-2.265a5.501 5.501 0 0 0-1.277-3.913 6.04 6.04 0 0 0-7.635 0 5.51 5.51 0 0 0-1.277 3.913v2.266h10.189zM165.071 24.957h-4.085V7.868h-6.234V4.064h16.546v3.804h-6.227v17.089zM187.844 16.169h-9.454v5.018h11.308v3.77h-15.4V4.064h15.4v3.804H178.39v4.662h9.454v3.639z" fill="#fff"/>
    <path d="M68.904 51.184H58.79V31.67h9.337a5.815 5.815 0 0 1 4.174 1.387 4.849 4.849 0 0 1 1.462 3.687 4.41 4.41 0 0 1-2.54 4.298v.062a4.683 4.683 0 0 1 2.52 1.792 5.54 5.54 0 0 1-.597 6.831 5.862 5.862 0 0 1-4.243 1.456zM67.62 35.22h-5.012v4.353h5.04a2.32 2.32 0 0 0 1.73-.611 2.14 2.14 0 0 0 .597-1.566c0-1.448-.785-2.174-2.355-2.176zm.652 7.758h-5.664v4.682h5.637a2.506 2.506 0 0 0 1.894-.638 2.345 2.345 0 0 0 .612-1.682 2.303 2.303 0 0 0-.66-1.682 2.412 2.412 0 0 0-1.819-.68zM89.72 43.425V31.671h3.728v11.754c0 2.527-.713 4.51-2.148 5.966-1.435 1.456-3.44 2.177-6.028 2.177-2.644 0-4.688-.726-6.132-2.177-1.444-1.45-2.165-3.44-2.162-5.966V31.671h3.817v11.754a4.824 4.824 0 0 0 1.133 3.42 4.33 4.33 0 0 0 3.31 1.208 4.394 4.394 0 0 0 3.343-1.209 4.784 4.784 0 0 0 1.14-3.419zM112.988 51.183h-4.531l-4.147-6.59h-3.522v6.59h-3.817V31.671h8.17c2.389 0 4.167.584 5.355 1.744a6.29 6.29 0 0 1 1.771 4.696 6.851 6.851 0 0 1-1.016 3.79 5.467 5.467 0 0 1-3.041 2.238v.062l4.778 6.982zm-12.2-10.14h4.414c2.152 0 3.225-.975 3.22-2.925 0-1.93-1.073-2.893-3.22-2.89h-4.414v5.815zM125.751 51.184h-10.113V31.67h9.337a5.816 5.816 0 0 1 4.175 1.387 4.845 4.845 0 0 1 1.462 3.687 4.418 4.418 0 0 1-2.533 4.298v.062a4.68 4.68 0 0 1 2.519 1.792 5.522 5.522 0 0 1-.59 6.831 5.895 5.895 0 0 1-4.257 1.456zm-1.284-15.963h-5.012v4.353h5.04a2.32 2.32 0 0 0 1.73-.611 2.126 2.126 0 0 0 .597-1.566c.007-1.448-.782-2.176-2.355-2.176zm.66 7.758h-5.672v4.682h5.637a2.519 2.519 0 0 0 1.895-.638 2.551 2.551 0 0 0-.041-3.364 2.416 2.416 0 0 0-1.819-.68zM150.866 51.184h-3.817v-5.85h-9.516v5.85h-3.728V39.758c0-2.643.737-4.717 2.21-6.22 1.47-1.497 3.568-2.248 6.296-2.252 2.728-.005 4.836.746 6.323 2.252 1.49 1.503 2.236 3.577 2.239 6.22v11.425h-.007zm-3.817-9.31v-2.122a5.127 5.127 0 0 0-1.195-3.652 5.631 5.631 0 0 0-7.127 0 5.132 5.132 0 0 0-1.194 3.652v2.122h9.516zM170.556 51.184h-3.817V39.428a4.736 4.736 0 0 0-1.133-3.398 5.275 5.275 0 0 0-6.687 0 4.75 4.75 0 0 0-1.133 3.398v11.755h-3.817V39.428c0-2.526.721-4.515 2.163-5.966 1.441-1.45 3.485-2.176 6.131-2.176 2.643 0 4.687.725 6.131 2.176s2.165 3.44 2.162 5.966v11.755zM177.923 51.183h-3.817V31.671h3.817v8.472l.069.007 6.907-8.479h4.806l-8.294 9.578L190 51.183h-4.923l-7.092-8.712h-.062v8.712z" fill="#6AE7A3"/>
    <path d="M46.865 53.559H6.694A6.694 6.694 0 0 1 0 46.865V6.694A6.694 6.694 0 0 1 6.694 0h40.17a6.694 6.694 0 0 1 6.695 6.694v40.178a6.686 6.686 0 0 1-6.694 6.687z" fill="#333"/>
    <path d="m18.565 4.12-4.147 7.18h2.485v32.283h3.33V11.301h2.479l-4.147-7.182z" fill="url(#a)"/>
    <path d="m37.267 25.726-3.124.755 3.13-.761c.316-.943.476-1.93.474-2.925a9.286 9.286 0 0 0-9.275-9.275h-7.854v3.33h7.854a5.96 5.96 0 0 1 5.953 5.945 5.84 5.84 0 0 1-.639 2.664l-.638 1.262h-.007l1.14.83a7.021 7.021 0 0 1-4.131 12.71h-9.928v3.323l.006.006h9.922a10.345 10.345 0 0 0 7.117-17.865z" fill="#6AE7A3"/>
    <path d="M20.62 13.517v3.347h8.732v-3.347h-8.733z" fill="url(#b)"/>
    <defs>
        <linearGradient id="a" x1="18.565" y1="4.119" x2="18.565" y2="43.583" gradientUnits="userSpaceOnUse">
            <stop stop-color="#226ACC"/>
            <stop offset="1" stop-color="#6AE7A3"/>
        </linearGradient>
        <linearGradient id="b" x1="20.619" y1="13.517" x2="30.268" y2="13.517" gradientUnits="userSpaceOnUse">
            <stop stop-opacity=".78"/>
            <stop offset=".371" stop-color="#234B35" stop-opacity=".612"/>
            <stop offset=".567" stop-color="#377754" stop-opacity=".439"/>
            <stop offset=".875" stop-color="#5FD093" stop-opacity=".09"/>
            <stop offset="1" stop-color="#6AE7A3" stop-opacity="0"/>
        </linearGradient>
    </defs>
</svg>
