<svg width="207" height="207" fill="none" xmlns="http://www.w3.org/2000/svg">
    <circle cx="103.5" cy="103.5" r="103.5" fill="#C13837"/>
    <mask id="a" style="mask-type:alpha" maskUnits="userSpaceOnUse" x="0" y="0" width="207" height="207">
        <circle cx="103.5" cy="103.5" r="103.5" fill="#fff"/>
    </mask>
    <g mask="url(#a)" fill-rule="evenodd" clip-rule="evenodd">
        <path opacity=".448" d="M151.147 80.819a1.851 1.851 0 0 0-.714-.56L120.9 67.44l-.038-.02a1.97 1.97 0 0 0-1.196-.095c-.096.019-.193.038-.289.077-.039.019-.058.019-.097.038L90.5 79.932 61.7 67.42a1.992 1.992 0 0 0-1.832.154c-.54.366-.868.964-.868 1.62v60.573c0 .462.174.906.463 1.234l.29.289 76.165 76.14c33.963-10.219 60.74-36.981 70.964-70.925l-55.716-55.667-.019-.02z" fill="#C0433C"/>
        <path d="M60.929 69.194v60.574l29.578 12.842V82.035L60.928 69.194z" fill="#C13837"/>
        <path d="m62.858 128.504 25.72 11.166V83.3l-25.72-11.167v56.371zm27.649 16.034c-.261 0-.523-.053-.769-.16L60.16 131.536a1.926 1.926 0 0 1-1.16-1.767V69.193a1.93 1.93 0 0 1 2.698-1.767l29.577 12.841c.705.306 1.16 1 1.16 1.768v60.575a1.93 1.93 0 0 1-1.928 1.928z" fill="#942322"/>
        <path d="M120.084 69.194v60.574L90.506 142.61V82.035l29.578-12.841z" fill="#C13837"/>
        <path d="M92.436 83.3v56.37l25.719-11.166v-56.37l-25.72 11.165zm-1.93 61.238a1.93 1.93 0 0 1-1.928-1.928V82.035c0-.768.456-1.462 1.16-1.767l29.577-12.842a1.93 1.93 0 0 1 2.698 1.768v60.574c0 .769-.456 1.463-1.161 1.768l-29.577 12.842c-.246.107-.507.16-.768.16z" fill="#942322"/>
        <path d="M120.084 69.194v60.574l29.577 12.842V82.035l-29.577-12.841z" fill="#C13837"/>
        <path d="m122.013 128.504 25.72 11.166V83.3l-25.72-11.167v56.371zm27.648 16.034c-.26 0-.522-.053-.768-.16l-29.578-12.842a1.927 1.927 0 0 1-1.16-1.767V69.193a1.928 1.928 0 0 1 2.697-1.767l29.578 12.841c.705.306 1.161 1 1.161 1.768v60.575a1.93 1.93 0 0 1-1.93 1.928z" fill="#942322"/>
        <path d="M117.193 120.327c-.704 0-1.419-.03-2.145-.091-9.307-.784-15.56-6.533-15.56-14.307 0-4.644-3.558-9.261-7.463-9.688-5.142-.561-8.954.279-11.335 2.496-2.791 2.6-2.726 6.38-2.725 6.417a1.927 1.927 0 0 1-1.853 2c-1.075.094-1.96-.788-2.001-1.852-.01-.225-.165-5.553 3.949-9.385 3.24-3.018 8.081-4.195 14.384-3.51 5.909.646 10.902 6.838 10.902 13.522 0 6.529 6.04 9.961 12.026 10.464 5.281.447 9.718-.951 12.837-4.036 3.65-3.609 5.289-9.447 4.741-16.88a1.927 1.927 0 0 1 1.781-2.065c1.088-.102 1.986.72 2.065 1.78.635 8.595-1.396 15.478-5.873 19.906-3.446 3.407-8.263 5.229-13.73 5.229z" fill="#F37271"/>
        <path d="M81.585 111.082a5.87 5.87 0 0 1-5.877 5.873c-3.239 0-5.857-2.636-5.857-5.873s2.618-5.873 5.857-5.873c.116 0 .213 0 .33.019 3.103.155 5.547 2.734 5.547 5.854z" fill="#C13837"/>
        <path d="M75.728 107.13a3.955 3.955 0 0 0-3.948 3.952c0 2.175 1.762 3.946 3.928 3.946a3.952 3.952 0 0 0 3.948-3.946c0-2.099-1.632-3.825-3.715-3.929a1.544 1.544 0 0 1-.213-.023zm-.02 11.754c-4.293 0-7.787-3.5-7.787-7.802 0-4.301 3.494-7.801 7.787-7.801.185 0 .343.005.517.026 4.094.253 7.288 3.65 7.288 7.775 0 4.302-3.502 7.802-7.805 7.802zM138.429 93.332c-.494 0-.988-.188-1.364-.564l-7.839-7.835a1.928 1.928 0 0 1 2.727-2.726l7.839 7.834a1.926 1.926 0 0 1-1.363 3.291z" fill="#F37271"/>
        <path d="M130.589 93.332a1.928 1.928 0 0 1-1.364-3.291l7.84-7.835a1.928 1.928 0 0 1 2.727 2.727l-7.839 7.834c-.377.377-.87.565-1.364.565z" fill="#F37271"/>
    </g>
</svg>
