<svg width="179" height="181" fill="none" xmlns="http://www.w3.org/2000/svg">
    <ellipse cx="89.5" cy="90.5" rx="89.5" ry="89.682" fill="#CAD369"/>
    <mask id="a" style="mask-type:alpha" maskUnits="userSpaceOnUse" x="0" y="0" width="179" height="181">
        <ellipse cx="89.5" cy="90.5" rx="89.5" ry="89.682" fill="#fff"/>
    </mask>
    <g mask="url(#a)">
        <path opacity=".23" fill-rule="evenodd" clip-rule="evenodd" d="m121.761 65.91-16.007 10.54-15.573-15.617-13.12-1.947 17.032 17.078-1.364 9.061-1.038 1.043-31.056-31.14-10.414 6.16-4.506 7.205-.853 10.623 2.923 10.504 5.934 8.384-1.682.338 26.5 26.571-1.833 1.837 52.305 48.622c25.314-8.624 44.002-31.591 46.436-59.256L121.761 65.91z" fill="#91933A"/>
        <path fill-rule="evenodd" clip-rule="evenodd" d="M127.535 83.026c-3.767-4.557-8.806-8.032-14.454-10.124l-.963 1.962c5.364 1.946 10.153 5.212 13.717 9.521 3.532 4.273 7.373 11.343 6.477 21.434a38.683 38.683 0 0 1-.187 1.658c-2.485 18.048-17.29 26.511-30.609 26.511-13.75 0-29.242-8.845-30.771-28.265-.062-.775-.438-1.611-1.125-1.611a.767.767 0 0 0-.557.28c-.286.321-.428.886-.377 1.505.735 9.353 4.593 17.176 11.158 22.623 5.86 4.862 13.556 7.541 21.672 7.541 8.116 0 15.814-2.679 21.673-7.541 5.586-4.633 9.2-10.989 10.613-18.539a2.11 2.11 0 0 0 .057-.228c2.419-12.838-2.104-21.62-6.324-26.727z" fill="#91933A"/>
        <path d="M127.535 83.026c-3.767-4.557-8.806-8.032-14.454-10.124l-.963 1.962c5.364 1.946 10.153 5.212 13.717 9.521 3.532 4.273 7.373 11.343 6.477 21.434a38.683 38.683 0 0 1-.187 1.658c-2.485 18.048-17.29 26.511-30.609 26.511-13.75 0-29.242-8.845-30.771-28.265-.062-.775-.438-1.611-1.125-1.611a.767.767 0 0 0-.557.28c-.286.321-.428.886-.377 1.505.735 9.353 4.593 17.176 11.158 22.623 5.86 4.862 13.556 7.541 21.672 7.541 8.116 0 15.814-2.679 21.673-7.541 5.586-4.633 9.2-10.989 10.613-18.539a2.11 2.11 0 0 0 .057-.228c2.419-12.838-2.104-21.62-6.324-26.727" stroke="#91933A" stroke-width="1.5" stroke-linecap="round" stroke-linejoin="round"/>
        <path fill-rule="evenodd" clip-rule="evenodd" d="M127.81 82.798c-3.797-4.596-8.878-8.103-14.571-10.22l-.32.655c5.602 2.069 10.606 5.504 14.339 10.021 4.173 5.047 8.642 13.73 6.251 26.432-.011.063-.03.123-.045.182-1.408 7.502-5.036 13.84-10.501 18.377-5.796 4.81-13.413 7.458-21.448 7.458-8.032 0-15.647-2.648-21.444-7.458-6.488-5.384-10.303-13.121-11.03-22.374-.042-.519.068-.995.288-1.243a.432.432 0 0 1 .291-.16c.431 0 .719.662.769 1.285 1.546 19.645 17.22 28.592 31.127 28.592 13.134 0 28.425-8.391 30.96-26.813.073-.544.136-1.084.192-1.682.912-10.27-3.062-17.466-6.558-21.692-3.595-4.35-8.427-7.647-13.836-9.616l-.317.645c5.322 1.923 10.075 5.156 13.604 9.428 3.41 4.123 7.286 11.144 6.397 21.171a38.622 38.622 0 0 1-.188 1.643c-2.491 18.011-17.424 26.201-30.254 26.201-13.59 0-28.905-8.742-30.416-27.934-.076-.966-.566-1.943-1.496-1.943a1.127 1.127 0 0 0-.809.401c-.353.4-.524 1.045-.467 1.773.746 9.452 4.646 17.359 11.288 22.87 5.922 4.915 13.7 7.621 21.9 7.621 8.199 0 15.978-2.706 21.901-7.622 5.598-4.646 9.31-11.128 10.733-18.731.021-.08.044-.162.062-.245 2.442-12.976-2.133-21.857-6.402-27.022z" fill="#91933A"/>
        <path fill-rule="evenodd" clip-rule="evenodd" d="m85.052 58.381-.308 1.4c7.345 2.123 9.772 11.064 8.882 19.197-1.336 12.27-9.867 24.687-23.649 25.102-13.781-.415-22.315-12.832-23.652-25.102-.885-8.133 1.541-17.074 8.886-19.197l-.308-1.4c-7.141 2.027-11.14 10.25-9.996 20.753 1.407 12.903 10.45 25.965 25.07 26.378 14.62-.414 23.663-13.474 25.07-26.378 1.145-10.503-2.854-18.727-9.995-20.753z" fill="#91933A"/>
        <path fill-rule="evenodd" clip-rule="evenodd" d="M95.047 79.134c-1.407 12.904-10.45 25.964-25.07 26.378-14.62-.413-23.663-13.475-25.07-26.378-1.143-10.504 2.855-18.726 9.996-20.753l.308 1.399c-7.345 2.125-9.77 11.065-8.886 19.198 1.337 12.27 9.871 24.687 23.653 25.101 13.781-.414 22.313-12.831 23.649-25.1.889-8.134-1.538-17.074-8.883-19.199l.308-1.399c7.141 2.026 11.14 10.25 9.995 20.753zM84.513 57.507l-.617 2.796C91.35 61.956 93.8 70.835 92.92 78.9c-1.304 11.95-9.584 24.036-22.941 24.454-13.358-.418-21.64-12.504-22.943-24.454-.88-8.065 1.57-16.945 9.023-18.598l-.616-2.795c-7.949 1.763-12.466 10.485-11.243 21.704 1.439 13.222 10.74 26.594 25.779 27.007 15.038-.414 24.34-13.785 25.78-27.007 1.22-11.219-3.297-19.941-11.245-21.704z" fill="#91933A"/>
        <path d="M95.793 79.215a.75.75 0 1 0-1.492-.162l1.492.162zm-25.816 26.297-.02.749a.3.3 0 0 0 .042 0l-.021-.749zm-25.07-26.378-.746.081.746-.08zm9.996-20.753.732-.161a.75.75 0 0 0-.937-.56l.205.721zm.308 1.399.208.72a.75.75 0 0 0 .524-.881l-.732.161zm-8.886 19.198-.745.082.745-.082zm23.653 25.101-.023.75H70l-.022-.75zm23.649-25.1-.745-.082.745.081zM84.744 59.78l-.732-.161a.75.75 0 0 0 .524.881l.208-.72zm.308-1.399.205-.721a.75.75 0 0 0-.937.56l.732.161zm9.25 20.672a.75.75 0 0 0 1.49.162l-1.49-.162zm-9.057-21.384a.75.75 0 1 0-1.464-.323l1.464.323zm-1.349 2.634-.732-.162a.75.75 0 0 0 .57.894l.162-.732zM92.92 78.9l-.746-.08.746.08zm-22.941 24.454-.024.75h.047l-.023-.75zM47.035 78.9l.746-.08-.746.08zm9.023-18.598.162.733a.75.75 0 0 0 .57-.894l-.732.162zm-.616-2.795.732-.161a.75.75 0 0 0-.894-.57l.162.731zM44.199 79.211l.745-.081-.745.081zm25.779 27.007-.021.749a.283.283 0 0 0 .041 0l-.02-.749zm25.78-27.007.746.081-.746-.08zM84.675 56.775a.75.75 0 0 0-.324 1.465l.324-1.465zm9.627 22.278c-1.384 12.69-10.24 25.31-24.346 25.709l.043 1.499c15.133-.428 24.363-13.926 25.794-27.046l-1.492-.162zm-24.303 25.709c-14.107-.398-22.963-13.02-24.346-25.71l-1.492.163c1.431 13.119 10.66 26.619 25.795 27.046l.043-1.499zM45.653 79.053c-1.126-10.342 2.83-18.07 9.455-19.95l-.41-1.443C47.04 59.833 43 68.548 44.16 79.215l1.492-.162zm8.517-20.51.308 1.398 1.465-.322-.308-1.4-1.465.323zm.832.517c-3.951 1.143-6.541 4.117-8.016 7.786-1.47 3.658-1.859 8.056-1.406 12.213l1.49-.162c-.432-3.976-.05-8.115 1.308-11.491 1.353-3.366 3.648-5.924 7.041-6.906l-.417-1.44zm-9.422 20c1.359 12.479 10.077 25.339 24.375 25.769L70 103.33c-13.265-.399-21.616-12.373-22.93-24.433l-1.49.163zM70 104.829c14.298-.43 23.013-13.29 24.373-25.77l-1.492-.162c-1.313 12.06-9.661 24.034-22.926 24.433l.045 1.499zm24.373-25.77c.454-4.157.066-8.555-1.404-12.213-1.475-3.669-4.065-6.643-8.016-7.787l-.417 1.441c3.393.982 5.688 3.54 7.041 6.906 1.357 3.376 1.739 7.515 1.305 11.49l1.49.164zm-8.896-19.118.308-1.399-1.465-.322-.308 1.399 1.465.322zm-.63-.838c6.625 1.88 10.582 9.609 9.455 19.95l1.49.162c1.163-10.666-2.878-19.383-10.535-21.555l-.41 1.443zm-1.066-1.757-.617 2.795 1.465.323.616-2.795-1.464-.323zm-.047 3.689c3.427.76 5.74 3.177 7.106 6.45 1.373 3.29 1.763 7.392 1.333 11.334l1.491.163c.45-4.124.055-8.494-1.44-12.074-1.5-3.595-4.14-6.445-8.166-7.338l-.324 1.465zm8.44 17.784c-1.282 11.742-9.38 23.383-22.22 23.786l.047 1.499c13.876-.435 22.337-12.966 23.663-25.122l-1.49-.163zM70 102.605c-12.84-.402-20.94-12.044-22.22-23.786l-1.491.163c1.325 12.157 9.788 24.688 23.664 25.122l.047-1.499zM47.78 78.819c-.43-3.942-.04-8.045 1.333-11.334 1.367-3.274 3.68-5.69 7.106-6.45l-.324-1.465c-4.026.893-6.665 3.742-8.166 7.337-1.495 3.58-1.89 7.951-1.44 12.075l1.49-.163zm9.01-18.678-.617-2.795-1.465.323.616 2.795 1.465-.323zm-1.511-3.366C46.785 58.658 42.212 67.9 43.453 79.292l1.491-.162c-1.203-11.046 3.258-19.25 10.66-20.89l-.324-1.465zM43.453 79.292c1.463 13.44 10.953 27.249 26.504 27.675l.041-1.499c-14.527-.399-23.638-13.334-25.054-26.338l-1.49.162zm26.545 27.675c15.55-.427 25.041-14.235 26.506-27.675l-1.492-.162c-1.417 13.004-10.528 25.938-25.055 26.338l.041 1.499zm26.506-27.675c1.238-11.392-3.335-20.634-11.829-22.517l-.324 1.465c7.4 1.64 11.862 9.844 10.661 20.89l1.492.162z" fill="#91933A"/>
        <path fill-rule="evenodd" clip-rule="evenodd" d="M62.5 57.23a2.137 2.137 0 0 1-1.444 2.65l-4.31 1.266a2.128 2.128 0 0 1-2.64-1.447l-.225-.77a2.134 2.134 0 0 1 1.443-2.648l4.31-1.267a2.129 2.129 0 0 1 2.64 1.447l.226.769zM77.456 57.23a2.134 2.134 0 0 0 1.443 2.65l4.31 1.266a2.128 2.128 0 0 0 2.641-1.448l.224-.768a2.136 2.136 0 0 0-1.443-2.649l-4.31-1.267a2.128 2.128 0 0 0-2.64 1.447l-.225.769z" fill="#91933A" stroke="#91933A" stroke-width="1.5" stroke-linecap="round" stroke-linejoin="round"/>
        <path fill-rule="evenodd" clip-rule="evenodd" d="M125.546 73.751c0 6.036-4.88 10.928-10.9 10.928-6.019 0-10.899-4.892-10.899-10.928 0-6.036 4.88-10.93 10.899-10.93 6.019 0 10.9 4.894 10.9 10.93z" fill="#91933A"/>
        <path d="M125.546 73.751c0 6.036-4.88 10.928-10.9 10.928-6.019 0-10.899-4.892-10.899-10.928 0-6.036 4.88-10.93 10.899-10.93 6.019 0 10.9 4.894 10.9 10.93" stroke="#91933A" stroke-width="1.5" stroke-linecap="round" stroke-linejoin="round"/>
        <path fill-rule="evenodd" clip-rule="evenodd" d="M121.7 73.751c0 3.906-3.157 7.071-7.053 7.071-3.895 0-7.054-3.165-7.054-7.071 0-3.907 3.159-7.073 7.054-7.074 3.896.001 7.052 3.167 7.053 7.074z" fill="#CAD369"/>
        <path fill-rule="evenodd" clip-rule="evenodd" d="M120.354 73.751c0 3.16-2.557 5.72-5.707 5.72-3.152 0-5.706-2.56-5.706-5.72 0-3.16 2.554-5.72 5.706-5.72 3.151 0 5.707 2.56 5.707 5.72z" fill="#CAD369"/>
        <path fill-rule="evenodd" clip-rule="evenodd" d="M116.348 73.751a1.701 1.701 0 1 1-3.401 0c0-.942.76-1.706 1.699-1.706.941 0 1.702.765 1.702 1.706z" fill="#91933A"/>
        <path d="M116.348 73.751a1.701 1.701 0 1 1-3.401 0c0-.942.76-1.706 1.699-1.706.941 0 1.702.765 1.702 1.706" stroke="#91933A" stroke-width="1.5"/>
    </g>
</svg>
