<svg width="207" height="207" fill="none" xmlns="http://www.w3.org/2000/svg">
    <circle cx="103.5" cy="103.5" r="103.5" fill="#C2C457"/>
    <mask id="a" style="mask-type:alpha" maskUnits="userSpaceOnUse" x="0" y="0" width="207" height="207">
        <circle cx="103.5" cy="103.5" r="103.5" fill="#fff"/>
    </mask>
    <g mask="url(#a)">
        <path opacity=".23" fill-rule="evenodd" clip-rule="evenodd" d="m141.132 74.695-18.553 12.183-18.051-18.052-15.208-2.25 19.742 19.741-1.58 10.475-1.204 1.205L70.281 62l-12.07 7.12-5.223 8.33L52 89.73l3.388 12.142 6.878 9.692-1.949.39 30.716 30.716-2.125 2.124L149.534 201c29.341-9.969 51.002-36.519 53.823-68.499l-62.225-57.806z" fill="#91933A"/>
        <path fill-rule="evenodd" clip-rule="evenodd" d="M147.825 94.482c-4.366-5.268-10.207-9.285-16.753-11.704l-1.117 2.268c6.218 2.25 11.769 6.025 15.9 11.007 4.093 4.939 8.545 13.112 7.507 24.777a43.78 43.78 0 0 1-.217 1.916c-2.88 20.863-20.041 30.647-35.478 30.647-15.937 0-33.895-10.225-35.667-32.674-.072-.896-.508-1.863-1.304-1.863a.895.895 0 0 0-.645.324c-.332.371-.497 1.024-.438 1.74.853 10.812 5.324 19.855 12.934 26.152 6.792 5.62 15.712 8.717 25.12 8.717 9.407 0 18.329-3.097 25.12-8.717 6.475-5.356 10.664-12.703 12.302-21.431.026-.087.05-.172.066-.264 2.804-14.84-2.439-24.993-7.33-30.895z" fill="#91933A"/>
        <path d="M147.825 94.482c-4.366-5.268-10.207-9.285-16.753-11.704l-1.117 2.268c6.218 2.25 11.769 6.025 15.9 11.007 4.093 4.939 8.545 13.112 7.507 24.777a43.78 43.78 0 0 1-.217 1.916c-2.88 20.863-20.041 30.647-35.478 30.647-15.937 0-33.895-10.225-35.667-32.674-.072-.896-.508-1.863-1.304-1.863a.895.895 0 0 0-.645.324c-.332.371-.497 1.024-.438 1.74.853 10.812 5.324 19.855 12.934 26.152 6.792 5.62 15.712 8.717 25.12 8.717 9.407 0 18.329-3.097 25.12-8.717 6.475-5.356 10.664-12.703 12.302-21.431.026-.087.05-.172.066-.264 2.804-14.84-2.439-24.993-7.33-30.895" stroke="#91933A" stroke-width="1.5" stroke-linecap="round" stroke-linejoin="round"/>
        <path fill-rule="evenodd" clip-rule="evenodd" d="M148.143 94.217c-4.401-5.312-10.29-9.367-16.888-11.813l-.371.756c6.493 2.392 12.293 6.363 16.62 11.585 4.837 5.834 10.017 15.871 7.245 30.554-.013.073-.034.143-.052.211-1.632 8.672-5.837 15.998-12.172 21.243-6.718 5.56-15.546 8.621-24.86 8.621-9.31 0-18.136-3.061-24.855-8.621-7.52-6.224-11.942-15.167-12.786-25.864-.048-.6.08-1.15.335-1.436a.496.496 0 0 1 .337-.185c.5 0 .833.765.891 1.485 1.792 22.709 19.96 33.052 36.079 33.052 15.224 0 32.948-9.7 35.886-30.996.085-.628.157-1.253.222-1.944 1.057-11.872-3.549-20.19-7.601-25.075-4.167-5.029-9.768-8.84-16.037-11.116l-.367.745c6.168 2.223 11.677 5.96 15.768 10.899 3.952 4.766 8.445 12.882 7.415 24.473-.066.688-.137 1.31-.219 1.899-2.887 20.821-20.196 30.288-35.067 30.288-15.752 0-33.503-10.105-35.254-32.291-.089-1.117-.657-2.246-1.734-2.246a1.308 1.308 0 0 0-.938.463c-.41.463-.608 1.209-.54 2.05.863 10.926 5.384 20.067 13.082 26.437 6.865 5.682 15.88 8.81 25.384 8.81s18.52-3.128 25.386-8.811c6.488-5.37 10.791-12.864 12.44-21.652.025-.093.051-.188.072-.284 2.831-15-2.472-25.266-7.421-31.237z" fill="#91933A"/>
        <path fill-rule="evenodd" clip-rule="evenodd" d="m98.584 65.992-.357 1.618c8.513 2.455 11.326 12.79 10.295 22.192-1.548 14.183-11.437 28.537-27.411 29.017-15.974-.48-25.866-14.834-27.415-29.017C52.67 80.4 55.482 70.065 63.995 67.61l-.357-1.618c-8.277 2.343-12.911 11.848-11.586 23.99 1.63 14.916 12.112 30.015 29.059 30.492 16.946-.478 27.427-15.575 29.058-30.492 1.327-12.141-3.308-21.648-11.585-23.99z" fill="#91933A"/>
        <path fill-rule="evenodd" clip-rule="evenodd" d="M110.169 89.982c-1.631 14.917-12.112 30.014-29.058 30.492-16.948-.477-27.429-15.576-29.06-30.492-1.325-12.143 3.31-21.647 11.587-23.99l.357 1.617C55.48 70.065 52.67 80.4 53.695 89.802c1.55 14.183 11.441 28.537 27.416 29.016 15.974-.479 25.863-14.833 27.412-29.016 1.03-9.402-1.783-19.737-10.296-22.193l.356-1.617c8.278 2.342 12.913 11.848 11.586 23.99zm-12.21-25-.716 3.231c8.639 1.911 11.479 12.175 10.458 21.5-1.511 13.812-11.107 27.783-26.59 28.267-15.484-.483-25.083-14.455-26.593-28.268-1.02-9.324 1.82-19.589 10.459-21.499l-.715-3.23C55.05 67.018 49.814 77.102 51.23 90.07c1.669 15.284 12.45 30.742 29.88 31.219 17.431-.478 28.213-15.935 29.883-31.219 1.414-12.969-3.822-23.052-13.034-25.089z" fill="#91933A"/>
        <path d="M110.914 90.064a.75.75 0 1 0-1.491-.163l1.491.163zm-29.803 30.41-.022.75h.043l-.022-.75zM52.05 89.982l-.745.082.745-.082zm11.587-23.99.732-.162a.75.75 0 0 0-.937-.56l.205.722zm.357 1.617.207.72a.75.75 0 0 0 .525-.882l-.733.162zm-10.3 22.193-.745.081.745-.08zm27.416 29.016-.023.75h.045l-.022-.75zm27.412-29.016-.746-.082.746.082zM98.227 67.61l-.733-.162a.75.75 0 0 0 .525.883l.207-.72zm.356-1.617.205-.722a.75.75 0 0 0-.937.56l.733.162zm10.84 23.909a.75.75 0 1 0 1.491.163l-1.491-.163zM98.691 65.144a.75.75 0 1 0-1.465-.324l1.465.324zm-1.448 3.07-.732-.163a.75.75 0 0 0 .57.894l.162-.732zm10.458 21.498-.745-.081.745.081zm-26.59 28.268-.024.75h.047l-.023-.75zM54.517 89.712l.746-.081-.745.081zm10.459-21.499.161.732a.75.75 0 0 0 .57-.894l-.731.162zm-.715-3.23.733-.163a.75.75 0 0 0-.894-.57l.162.732zM51.23 90.07l.746-.081-.745.081zm29.88 31.219-.02.75h.041l-.02-.75zm29.883-31.219.745.082-.745-.082zM98.12 64.25a.75.75 0 1 0-.323 1.464l.323-1.464zm11.303 25.65c-1.607 14.701-11.9 29.361-28.334 29.824l.043 1.5c17.458-.493 28.127-16.027 29.782-31.16l-1.491-.163zm-28.291 29.824c-16.435-.462-26.728-15.124-28.335-29.823l-1.491.163c1.655 15.132 12.324 30.668 29.783 31.16l.043-1.5zM52.797 89.901c-1.307-11.98 3.284-20.99 11.045-23.187l-.409-1.444c-8.792 2.49-13.47 12.487-12.127 24.794l1.491-.163zm10.108-23.747.357 1.617 1.465-.324-.357-1.617-1.465.324zm.882.734c-4.536 1.309-7.515 4.715-9.215 8.932-1.696 4.208-2.145 9.271-1.622 14.064l1.491-.163c-.503-4.61-.06-9.415 1.523-13.34 1.577-3.914 4.26-6.904 8.238-8.051l-.415-1.442zM52.95 89.883c1.572 14.395 11.649 29.19 28.138 29.685l.045-1.5c-15.459-.463-25.166-14.376-26.692-28.347l-1.491.162zm28.183 29.685c16.49-.495 26.563-15.29 28.135-29.684l-1.491-.163c-1.526 13.971-11.23 27.884-26.689 28.347l.045 1.5zm28.135-29.684c.525-4.792.076-9.856-1.619-14.064-1.7-4.217-4.679-7.623-9.215-8.931l-.415 1.44c3.977 1.148 6.661 4.138 8.238 8.052 1.582 3.925 2.025 8.73 1.52 13.34l1.491.163zM98.958 67.77l.358-1.617-1.465-.324-.357 1.617 1.465.324zm-.579-1.057c7.762 2.196 12.353 11.209 11.044 23.187l1.491.163c1.345-12.306-3.334-22.306-12.126-24.794l-.409 1.444zm-1.153-1.894-.715 3.231 1.465.324.715-3.23-1.465-.325zm-.144 4.125c4.02.89 6.726 3.718 8.321 7.527 1.601 3.825 2.053 8.588 1.553 13.159l1.491.163c.52-4.753.063-9.784-1.661-13.9-1.729-4.132-4.762-7.392-9.38-8.413l-.325 1.464zm9.874 20.686c-1.488 13.603-10.902 27.132-25.869 27.599l.047 1.5c16-.5 25.779-14.914 27.313-28.936l-1.491-.163zM81.134 117.23c-14.967-.466-24.383-13.996-25.87-27.6l-1.491.164c1.533 14.022 11.315 28.437 27.314 28.936l.047-1.5zm-25.87-27.6c-.5-4.57-.047-9.334 1.554-13.158 1.594-3.81 4.3-6.638 8.32-7.527l-.323-1.464c-4.618 1.02-7.651 4.28-9.381 8.412-1.723 4.116-2.181 9.148-1.661 13.9l1.491-.162zM65.71 68.052l-.714-3.23-1.465.323.714 3.231 1.465-.324zM64.1 64.25c-9.76 2.157-15.052 12.759-13.616 25.903l1.491-.163c-1.398-12.795 3.781-22.36 12.448-24.276l-.323-1.464zM50.485 90.153c1.692 15.503 12.663 31.396 30.605 31.887l.041-1.5c-16.92-.463-27.51-15.486-29.155-30.55l-1.491.163zM81.13 122.04c17.942-.492 28.913-16.384 30.607-31.887l-1.491-.163c-1.646 15.064-12.237 30.086-29.157 30.55l.041 1.5zm30.607-31.888c1.433-13.143-3.86-23.745-13.618-25.902l-.323 1.464c8.666 1.917 13.845 11.481 12.45 24.276l1.491.162z" fill="#91933A"/>
        <path fill-rule="evenodd" clip-rule="evenodd" d="M72.443 64.66a2.47 2.47 0 0 1-1.673 3.064l-4.997 1.464a2.468 2.468 0 0 1-3.06-1.673l-.26-.89a2.466 2.466 0 0 1 1.673-3.06l4.995-1.465a2.468 2.468 0 0 1 3.061 1.673l.261.888zM89.779 64.66a2.466 2.466 0 0 0 1.672 3.064l4.996 1.464a2.467 2.467 0 0 0 3.06-1.673l.26-.888a2.468 2.468 0 0 0-1.672-3.062L93.099 62.1a2.468 2.468 0 0 0-3.06 1.673l-.26.888z" fill="#91933A" stroke="#91933A" stroke-width="1.5" stroke-linecap="round" stroke-linejoin="round"/>
        <path fill-rule="evenodd" clip-rule="evenodd" d="M145.519 83.76c0 6.976-5.656 12.632-12.634 12.632-6.976 0-12.633-5.656-12.633-12.633 0-6.978 5.657-12.634 12.633-12.634 6.977 0 12.634 5.656 12.634 12.634z" fill="#91933A"/>
        <path d="M145.519 83.76c0 6.976-5.656 12.632-12.634 12.632-6.976 0-12.633-5.656-12.633-12.633 0-6.978 5.657-12.634 12.633-12.634 6.977 0 12.634 5.656 12.634 12.634" stroke="#91933A" stroke-width="1.5" stroke-linecap="round" stroke-linejoin="round"/>
        <path fill-rule="evenodd" clip-rule="evenodd" d="M141.061 83.76a8.173 8.173 0 0 1-8.175 8.173 8.175 8.175 0 1 1 0-16.35 8.177 8.177 0 0 1 8.175 8.176z" fill="#C2C457"/>
        <path fill-rule="evenodd" clip-rule="evenodd" d="M139.502 83.76a6.616 6.616 0 0 1-13.229 0 6.611 6.611 0 0 1 6.614-6.613 6.614 6.614 0 0 1 6.615 6.612z" fill="#C2C457"/>
        <path fill-rule="evenodd" clip-rule="evenodd" d="M134.858 83.76a1.972 1.972 0 1 1-3.944-.002 1.972 1.972 0 0 1 3.944.001z" fill="#91933A"/>
        <path d="M134.858 83.76a1.972 1.972 0 1 1-3.944-.002 1.972 1.972 0 0 1 3.944.001" stroke="#91933A" stroke-width="1.5"/>
    </g>
</svg>
